<svg xmlns="http://www.w3.org/2000/svg" viewBox="0 0 967.05 276.97"><defs><style>.cls-1{fill:#303;}.cls-2{fill:#eeebdd;}.cls-3{fill:#eb596e;}.cls-4{fill:none;}</style></defs><title>Asset 2</title><g id="Layer_2" data-name="Layer 2"><g id="Layer_1-2" data-name="Layer 1"><circle class="cls-1" cx="138.49" cy="138.49" r="138.49"/><path class="cls-2" d="M200.7,73.08,51.08,74.62c-2.43,0-3.94,2.38-2.73,4.27l.69.9c26.4,34.66,54.1,44.35,95.45,43.86,1,0,7.72.6,8.17-.06l-.08.11-9.92,15.52L140.22,143a3.34,3.34,0,0,1-5.46,0l-2.95-4.26a3.28,3.28,0,0,0-3.11-1.41l-13.32,1.49A2.82,2.82,0,0,0,113,143.1l21.72,33.59a3.33,3.33,0,0,0,5.46,0l42-65.66c1.21-1.9-.3-4.27-2.72-4.27H147.06c-10.65,0-21.36.76-32-.53a61,61,0,0,1-15.23-3.71C96,101,88.72,98.34,87.33,94c-1.61-5.08,7.94-4,10.63-4.11,5.28-.15,10.55.06,15.83.06h79.79a3.23,3.23,0,0,0,2.73-1.43l7.12-11.14C204.64,75.45,203.12,73.08,200.7,73.08Z"/><path class="cls-3" d="M244.23,81.53a22.62,22.62,0,0,1-1.84,3.3q-48.82,76.49-97.82,152.86c-1.52,2.37-3.44,5-6.25,5.22-3.28.25-5.72-2.85-7.5-5.62L79,156.94c-2.19-3.41-6.77-9.11-4-13s8.28-4.52,12.35-2.58c4.56,2.18,7.51,6.65,10.23,10.9l32.82,51.25c1.53,2.4,3.39,5,6.2,5.49,3.93.65,7-3.16,9.15-6.52l73.9-116.1c2.85-4.48,6.16-9.46,11-12.21,4.28-2.45,12.76-3.24,14.18,3A7,7,0,0,1,244.23,81.53Z"/><path class="cls-4" d="M687.89,108c-1.5-5.16-3-11.7-4.39-16.8h-.27c-1.28,5.13-2.6,11.75-4,16.82l-3.38,12a5.12,5.12,0,0,0,4.93,6.51h5.7A5.12,5.12,0,0,0,691.4,120Z"/><path class="cls-4" d="M601.45,90.38c-1.53,0-2.85,0-4,.09a5.12,5.12,0,0,0-4.89,5.11V110a5.12,5.12,0,0,0,5.12,5.12h2.6c9.79,0,15.64-5,15.64-12.58C615.93,94.52,610.46,90.43,601.45,90.38Z"/><path class="cls-4" d="M518.15,109.12c-13.37,0-21.17,12.62-21.17,29.59s8,29.14,21.21,29.14c13.34,0,21-12.6,21-29.57C539.15,122.55,531.72,109.12,518.15,109.12Z"/><path class="cls-4" d="M425.34,109.12c-13.36,0-21.17,12.62-21.17,29.59s8.06,29.14,21.22,29.14c13.33,0,21-12.6,21-29.57C446.35,122.55,438.91,109.12,425.34,109.12Z"/><path class="cls-1" d="M351.38,130.27c-11.32-4.27-16.15-6.72-16.15-12.26,0-4.46,4.1-8.44,12.69-8.44a41.94,41.94,0,0,1,13.24,2.13,5.1,5.1,0,0,0,6.5-3.51l1.61-5.87a5.14,5.14,0,0,0-3.38-6.25,56.37,56.37,0,0,0-17.68-2.57c-20.51,0-33,11.31-33,26.19,0,12.74,9.51,20.68,24.07,25.84,10.44,3.68,14.61,6.83,14.61,12.19,0,5.74-4.81,9.51-13.87,9.51a48.62,48.62,0,0,1-16.62-3.13,5.09,5.09,0,0,0-6.7,3.6l-1.52,6.21a5.13,5.13,0,0,0,3.22,6,62.3,62.3,0,0,0,20.41,3.52c24,0,35.17-12.5,35.17-27.07C374,144.07,366.83,136.05,351.38,130.27Z"/><path class="cls-1" d="M425.79,93.44c-25.69,0-42.47,19.56-42.47,45.64,0,24.88,15.22,44.45,41.09,44.45,25.51,0,42.79-17.29,42.79-45.92C467.2,113.47,452.56,93.44,425.79,93.44Zm-.4,74.41c-13.16,0-21.22-12-21.22-29.14s7.81-29.59,21.17-29.59c13.57,0,21,13.43,21,29.16C446.35,155.25,438.72,167.85,425.39,167.85Z"/><path class="cls-1" d="M518.59,93.44c-25.69,0-42.47,19.56-42.47,45.64,0,24.88,15.23,44.45,41.1,44.45,25.51,0,42.78-17.29,42.78-45.92C560,113.47,545.37,93.44,518.59,93.44Zm-.4,74.41c-13.16,0-21.21-12-21.21-29.14s7.8-29.59,21.17-29.59c13.57,0,21,13.43,21,29.16C539.15,155.25,531.53,167.85,518.19,167.85Z"/><path class="cls-1" d="M631.8,157.48c-2.2-8-5.61-13.8-11.66-16.24v-.41c7.5-2.69,15.4-10.39,15.4-21.45,0-8-2.86-14.15-8.07-18.29-6.23-4.93-15.29-6.91-28.24-6.91a183,183,0,0,0-21.75,1.23,5.11,5.11,0,0,0-4.46,5.08V177a5.12,5.12,0,0,0,5.12,5.12h9.31a5.12,5.12,0,0,0,5.12-5.12V153a5.12,5.12,0,0,1,5.12-5.12h.74c8.12.1,11.78,3,14.21,13.92a172.84,172.84,0,0,0,4.61,16.94,5.08,5.08,0,0,0,4.82,3.4h9.62a5.11,5.11,0,0,0,4.93-6.51C635.18,170.56,633.5,163.72,631.8,157.48Zm-31.51-23.9h-2.6a5.12,5.12,0,0,1-5.12-5.12V114.09a5.13,5.13,0,0,1,4.89-5.12c1.14,0,2.46-.09,4-.09,9,.06,14.48,4.14,14.48,12.13C615.93,128.59,610.08,133.58,600.29,133.58Z"/><path class="cls-1" d="M698.17,98.46a5.13,5.13,0,0,0-4.89-3.6H675a5.12,5.12,0,0,0-4.9,3.63l-23.5,77a5.12,5.12,0,0,0,4.9,6.61h9.58a5.12,5.12,0,0,0,4.93-3.76l4.09-14.88a5.12,5.12,0,0,1,4.94-3.76h17.37a5.12,5.12,0,0,1,4.91,3.65l4.52,15.1a5.12,5.12,0,0,0,4.9,3.65h10.49a5.12,5.12,0,0,0,4.89-6.64ZM686.48,145h-5.7a5.12,5.12,0,0,1-4.93-6.51l3.38-12c1.4-5.07,2.72-11.69,4-16.82h.27c1.34,5.1,2.89,11.64,4.39,16.8l3.51,12A5.12,5.12,0,0,1,686.48,145Z"/><path class="cls-1" d="M770.84,94.86h-9.49a5.12,5.12,0,0,0-5.12,5.12v49.83c0,13.57-5.21,17.28-13.49,17.28a33.91,33.91,0,0,1-5-.38,5.1,5.1,0,0,0-5.79,4.36l-.81,5.84a5.13,5.13,0,0,0,4.18,5.75,56,56,0,0,0,9.63.87c19.14,0,31.05-8.72,31.05-33.49V100A5.12,5.12,0,0,0,770.84,94.86Z"/><path class="cls-1" d="M877.83,94.86H820.92A5.12,5.12,0,0,0,815.8,100v6.32a5.12,5.12,0,0,0,5.12,5.12h13.31a5.12,5.12,0,0,1,5.12,5.12V177a5.12,5.12,0,0,0,5.12,5.12H854a5.12,5.12,0,0,0,5.12-5.12V116.54a5.11,5.11,0,0,1,5.11-5.12h13.64A5.12,5.12,0,0,0,883,106.3V100A5.12,5.12,0,0,0,877.83,94.86Z"/><path class="cls-1" d="M944.45,130.27C933.14,126,928.3,123.55,928.3,118c0-4.46,4.1-8.44,12.69-8.44a41.89,41.89,0,0,1,13.24,2.13,5.1,5.1,0,0,0,6.5-3.51l1.62-5.87A5.14,5.14,0,0,0,959,96.07a56.35,56.35,0,0,0-17.67-2.57c-20.52,0-33,11.31-33,26.19,0,12.74,9.51,20.68,24.07,25.84,10.45,3.68,14.61,6.83,14.61,12.19,0,5.74-4.81,9.51-13.87,9.51a48.62,48.62,0,0,1-16.62-3.13,5.09,5.09,0,0,0-6.7,3.6l-1.52,6.21a5.13,5.13,0,0,0,3.23,6,62.24,62.24,0,0,0,20.4,3.52c24,0,35.17-12.5,35.17-27.07C967.05,144.07,959.9,136.05,944.45,130.27Z"/></g></g></svg>