<?xml version="1.0" encoding="utf-8"?>
<!-- Generator: Adobe Illustrator 23.0.5, SVG Export Plug-In . SVG Version: 6.00 Build 0)  -->
<svg version="1.1" id="Layer_1" xmlns="http://www.w3.org/2000/svg" xmlns:xlink="http://www.w3.org/1999/xlink" x="0px" y="0px"
	 viewBox="0 0 1280 1024" style="enable-background:new 0 0 1280 1024;" xml:space="preserve">
<style type="text/css">
	.st0{fill:#FFFFFF;}
	.st1{fill:#EE5A24;}
	.st2{fill:#330033;}
	.st3{fill:#EEEBDD;}
	.st4{fill:#EB596E;}
	.st5{fill:#663333;}
	.st6{fill:none;}
</style>
<path class="st0" d="M-325.53,909.41h-717.09c-25.85,0-46.81-20.96-46.81-46.81V145.51c0-25.85,20.96-46.81,46.81-46.81h717.09
	c25.85,0,46.81,20.96,46.81,46.81V862.6C-278.72,888.45-299.68,909.41-325.53,909.41z"/>
<rect x="-5333.76" y="-1157.76" class="st1" width="1280" height="1024"/>
<g>
	<path d="M-4698.24-723.74c2.36-0.03,17.72,1.36,18.75-0.15l-0.17,0.25l-22.77,35.61l-5.61,8.77c-2.78,4.35-9.76,4.35-12.54,0
		l-6.76-9.77c-1.46-2.28-4.28-3.53-7.15-3.23l-30.56,3.42c-5.14,0.56-7.96,5.68-5.37,9.73l49.84,77.1c2.78,4.35,9.76,4.35,12.54,0
		l96.4-150.72c2.78-4.35-0.68-9.79-6.25-9.79c-24.82,0-49.64,0-74.46,0c-24.44,0-49.02,1.75-73.36-1.21
		c-11.94-1.45-23.77-4.08-34.97-8.53c-8.78-3.49-25.57-9.6-28.76-19.65c-3.7-11.66,18.21-9.24,24.4-9.42
		c12.11-0.35,24.22,0.13,36.33,0.13c20.37,0,40.74,0,61.11,0c40.68,0,81.36,0,122.03,0c2.59,0,4.96-1.24,6.27-3.26l16.35-25.57
		c2.78-4.35-0.71-9.79-6.27-9.79l-343.43,3.55c-5.56,0-9.03,5.45-6.25,9.79c0,0,1.57,2.06,1.57,2.07
		C-4856.72-744.87-4793.14-722.62-4698.24-723.74z"/>
	<path d="M-4467.96-830.51c-3.28-14.3-22.73-12.49-32.55-6.87c-11.03,6.31-18.62,17.75-25.16,28.03
		c-56.54,88.83-113.09,177.66-169.63,266.49c-4.91,7.71-11.98,16.46-20.99,14.96c-6.45-1.07-10.72-7.09-14.24-12.6
		c-25.1-39.21-50.21-78.42-75.31-117.63c-6.25-9.77-13.03-20.01-23.5-25.02c-9.33-4.46-22.04-2.78-28.33,5.92
		c-6.49,8.98,4.02,22.07,9.06,29.88c39.67,61.48,79.34,122.96,119.02,184.44c4.09,6.34,9.68,13.47,17.2,12.88
		c6.45-0.5,10.85-6.52,14.35-11.97c74.98-116.87,149.82-233.83,224.54-350.87c1.53-2.39,3.09-4.94,4.21-7.58
		C-4467.91-823.7-4467.18-827.09-4467.96-830.51z"/>
</g>
<rect x="-3993.55" y="-1173.08" class="st2" width="1318.3" height="1054.64"/>
<path class="st3" d="M-3338.88-723.74c2.36-0.03,17.72,1.36,18.75-0.15l-0.17,0.25l-22.77,35.61l-5.61,8.77
	c-2.78,4.35-9.76,4.35-12.54,0l-6.76-9.77c-1.46-2.28-4.28-3.53-7.15-3.23l-30.56,3.42c-5.14,0.56-7.96,5.68-5.37,9.73l49.84,77.1
	c2.78,4.35,9.76,4.35,12.54,0l96.4-150.72c2.78-4.35-0.68-9.79-6.25-9.79c-24.82,0-49.64,0-74.46,0c-24.44,0-49.02,1.75-73.36-1.21
	c-11.94-1.45-23.77-4.08-34.97-8.53c-8.78-3.49-25.57-9.6-28.76-19.65c-3.7-11.66,18.21-9.24,24.4-9.42
	c12.11-0.35,24.22,0.13,36.33,0.13c20.37,0,40.74,0,61.11,0c40.68,0,81.36,0,122.03,0c2.59,0,4.96-1.24,6.27-3.26l16.35-25.57
	c2.78-4.35-0.71-9.79-6.27-9.79l-343.43,3.55c-5.56,0-9.03,5.45-6.25,9.79c0,0,1.57,2.06,1.57,2.07
	C-3497.36-744.87-3433.78-722.62-3338.88-723.74z"/>
<path class="st4" d="M-3108.6-830.51c-3.28-14.3-22.73-12.49-32.55-6.87c-11.03,6.31-18.62,17.75-25.16,28.03
	c-56.54,88.83-113.09,177.66-169.63,266.49c-4.91,7.71-11.98,16.46-20.99,14.96c-6.45-1.07-10.72-7.09-14.24-12.6
	c-25.1-39.21-50.21-78.42-75.31-117.63c-6.25-9.77-13.03-20.01-23.5-25.02c-9.33-4.46-22.04-2.78-28.33,5.92
	c-6.49,8.98,4.02,22.07,9.06,29.88c39.67,61.48,79.34,122.96,119.02,184.44c4.09,6.34,9.68,13.47,17.2,12.88
	c6.45-0.5,10.85-6.52,14.35-11.97c74.98-116.87,149.82-233.83,224.54-350.87c1.53-2.39,3.09-4.94,4.21-7.58
	C-3108.55-823.7-3107.82-827.09-3108.6-830.51z"/>
<path class="st5" d="M-4783.18-678.19"/>
<path class="st5" d="M-3755.62-355.85"/>
<path class="st5" d="M-3755.62-946.34"/>
<circle class="st2" cx="-1996.38" cy="-649.38" r="433.98"/>
<g>
	<g>
		<g>
			<path class="st3" d="M-1801.42-854.36l-468.89,4.85c-7.6,0-12.33,7.44-8.53,13.37c0,0,2.15,2.82,2.15,2.82
				c82.74,108.62,169.55,138.99,299.11,137.46c3.22-0.04,24.19,1.86,25.6-0.2c0,0-0.23,0.34-0.23,0.34l-31.09,48.62l-7.66,11.97
				c-3.8,5.93-13.32,5.93-17.12,0l-9.23-13.34c-1.99-3.11-5.84-4.83-9.76-4.4l-41.72,4.67c-7.01,0.76-10.87,7.75-7.33,13.29
				l68.05,105.26c3.8,5.93,13.32,5.93,17.12,0l131.62-205.78c3.8-5.93-0.94-13.37-8.53-13.37c-33.89,0-67.78,0-101.67,0
				c-33.36,0-66.93,2.38-100.16-1.65c-16.31-1.98-32.46-5.56-47.74-11.65c-11.99-4.77-34.91-13.1-39.26-26.83
				c-5.05-15.92,24.87-12.62,33.31-12.87c16.53-0.48,33.06,0.17,49.59,0.17c27.81,0,55.62,0,83.43,0c55.54,0,111.08,0,166.61,0
				c3.54,0,6.78-1.69,8.56-4.46l22.32-34.91C-1789.06-846.92-1793.82-854.36-1801.42-854.36z"/>
		</g>
	</g>
	<g>
		<g>
			<path class="st4" d="M-1665.01-827.88c-1.54,3.6-3.67,7.08-5.75,10.35c-102.01,159.79-204.2,319.47-306.56,479.04
				c-4.77,7.43-10.78,15.65-19.59,16.34c-10.27,0.8-17.9-8.93-23.49-17.59c-54.16-83.94-108.33-167.88-162.49-251.82
				c-6.88-10.66-21.23-28.54-12.37-40.79c8.59-11.88,25.95-14.17,38.68-8.08c14.29,6.83,23.54,20.82,32.08,34.15
				c34.27,53.53,68.55,107.07,102.82,160.6c4.81,7.52,10.64,15.73,19.45,17.2c12.3,2.04,21.97-9.9,28.66-20.42
				c77.2-121.28,154.4-242.56,231.6-363.84c8.94-14.04,19.29-29.65,34.35-38.27c13.41-7.67,39.97-10.14,44.44,9.38
				C-1662.1-836.96-1663.11-832.33-1665.01-827.88z"/>
		</g>
	</g>
</g>
<path class="st5" d="M-2117.98-697.86"/>
<g>
	<circle class="st2" cx="-684.08" cy="443.09" r="289.92"/>
	<g>
		<g>
			<g>
				<path class="st3" d="M-553.84,306.16l-313.24,3.24c-5.07,0-8.24,4.97-5.7,8.93c0,0,1.43,1.88,1.44,1.88
					c55.28,72.56,113.27,92.85,199.82,91.83c2.15-0.03,16.16,1.24,17.1-0.14c0,0-0.16,0.23-0.16,0.23l-20.77,32.48l-5.11,8
					c-2.54,3.96-8.9,3.96-11.44,0l-6.17-8.91c-1.33-2.08-3.9-3.22-6.52-2.94l-27.87,3.12c-4.68,0.51-7.26,5.18-4.9,8.88l45.46,70.32
					c2.54,3.96,8.9,3.96,11.44,0l87.93-137.47c2.54-3.96-0.62-8.93-5.7-8.93c-22.64,0-45.28,0-67.92,0
					c-22.29,0-44.71,1.59-66.91-1.1c-10.89-1.32-21.68-3.72-31.9-7.78c-8.01-3.19-23.32-8.75-26.23-17.92
					c-3.37-10.64,16.61-8.43,22.26-8.6c11.04-0.32,22.09,0.12,33.13,0.12c18.58,0,37.16,0,55.73,0c37.1,0,74.2,0,111.3,0
					c2.36,0,4.53-1.13,5.72-2.98l14.91-23.32C-545.58,311.13-548.76,306.16-553.84,306.16z"/>
			</g>
		</g>
		<g>
			<g>
				<path class="st4" d="M-462.71,323.85c-1.03,2.41-2.45,4.73-3.84,6.91c-68.15,106.75-136.41,213.42-204.79,320.02
					c-3.19,4.97-7.2,10.46-13.09,10.92c-6.86,0.54-11.96-5.97-15.69-11.75c-36.18-56.08-72.37-112.15-108.55-168.23
					c-4.6-7.12-14.18-19.06-8.26-27.25c5.74-7.93,17.33-9.46,25.84-5.4c9.54,4.56,15.73,13.91,21.43,22.82
					c22.9,35.76,45.79,71.52,68.69,107.29c3.22,5.02,7.11,10.51,12.99,11.49c8.22,1.37,14.67-6.61,19.15-13.64
					c51.57-81.02,103.15-162.04,154.72-243.06c5.97-9.38,12.89-19.81,22.95-25.56c8.96-5.12,26.7-6.77,29.69,6.26
					C-460.77,317.78-461.44,320.88-462.71,323.85z"/>
			</g>
		</g>
	</g>
</g>
<path class="st5" d="M-782.64,402.71"/>
<g>
	<g>
		<path class="st2" d="M-876.25,832.44c0.42-1.73,2.27-2.69,3.92-2.03c3.46,1.37,7.84,2.44,12.3,2.44c6.37,0,9.75-2.65,9.75-6.69
			c0-3.77-2.93-5.99-10.28-8.58c-10.24-3.63-16.93-9.21-16.93-18.18c0-10.46,8.79-18.42,23.22-18.42c5.5,0,9.8,0.86,13.15,2.05
			c1.45,0.52,2.24,2.07,1.83,3.55l-1.49,5.42c-0.45,1.64-2.2,2.56-3.81,1.99c-2.49-0.89-5.83-1.7-9.89-1.7
			c-6.04,0-8.93,2.8-8.93,5.94c0,3.9,3.4,5.62,11.36,8.63c10.87,4.06,15.9,9.7,15.9,18.38c0,10.25-7.85,19.04-24.74,19.04
			c-5.62,0-11.24-1.23-15-2.72c-1.36-0.54-2.12-2-1.77-3.43L-876.25,832.44z"/>
		<path class="st2" d="M-782.59,820.58c0,16.29-11.54,23.73-23.49,23.73c-12.97,0-23.01-8.57-23.01-22.96
			c0-14.38,9.49-23.61,23.81-23.61C-791.65,797.74-782.59,807.12-782.59,820.58z M-814.81,821.04c0,7.61,3.21,13.38,9.12,13.38
			c5.4,0,8.82-5.41,8.82-13.45c0-6.57-2.53-13.33-8.81-13.33C-812.29,807.64-814.81,814.43-814.81,821.04z"/>
		<path class="st2" d="M-729.78,820.58c0,16.29-11.54,23.73-23.49,23.73c-12.97,0-23.01-8.57-23.01-22.96
			c0-14.38,9.49-23.61,23.81-23.61C-738.84,797.74-729.78,807.12-729.78,820.58z M-762,821.04c0,7.61,3.21,13.38,9.12,13.38
			c5.4,0,8.82-5.41,8.82-13.45c0-6.57-2.53-13.33-8.81-13.33C-759.48,807.64-762,814.43-762,821.04z"/>
		<path class="st2" d="M-721.21,813.43c0-4.88-0.07-8.51-0.2-11.64c-0.07-1.67,1.27-3.05,2.93-3.05h6.05c1.55,0,2.84,1.21,2.93,2.76
			l0.34,5.49h0.34c2.29-6.52,7.71-9.25,12.03-9.25c0.01,0,0.03,0,0.04,0c1.62,0,2.92,1.32,2.92,2.94v7.03c0,1.65-1.35,3.01-3,2.95
			c-0.24-0.01-0.48-0.01-0.74-0.01c-5.09,0-8.57,2.7-9.5,7.04c-0.17,0.88-0.26,1.96-0.26,3.08v19.62c0,1.62-1.31,2.94-2.94,2.94h-8
			c-1.62,0-2.94-1.31-2.94-2.94V813.43z"/>
		<path class="st2" d="M-659.79,843.31c-1.42,0-2.63-1.01-2.89-2.4l-0.37-2.03h-0.29c-2.91,3.55-7.46,5.43-12.73,5.43
			c-9.08,0-14.41-6.52-14.41-13.64c0-11.61,10.39-17.12,26.16-17.09v-0.57c0-2.37-1.27-5.75-8.16-5.74c-3.24,0-6.61,0.79-9.35,1.89
			c-1.61,0.65-3.43-0.28-3.91-1.95l-0.9-3.11c-0.41-1.43,0.31-2.93,1.67-3.52c3.41-1.46,8.55-2.84,14.97-2.84
			c14.84,0,19.53,8.77,19.53,19.24v15.54c0,2.74,0.09,5.4,0.29,7.61c0.15,1.71-1.21,3.18-2.93,3.18H-659.79z M-663.92,825.27
			c0-1.7-1.43-3.07-3.13-2.93c-5.71,0.45-9.8,2.4-9.8,6.92c0,3.59,2.35,5.34,5.5,5.34c3.39,0,6.26-2.26,7.17-5.12
			c0.21-0.72,0.26-1.58,0.26-2.37V825.27z"/>
		<path class="st2" d="M-648.31,854.42c-0.19-1.54,0.86-2.94,2.38-3.24c2.31-0.46,4.17-1.26,5.44-2.58
			c2.01-2.07,2.76-5.63,2.76-14.51v-32.41c0-1.62,1.31-2.94,2.94-2.94h8c1.62,0,2.94,1.31,2.94,2.94v35.75
			c0,9.71-2.13,15.61-6.26,19.48c-3.54,3.23-8.83,4.92-14.47,5.33c-1.54,0.11-2.89-1.04-3.08-2.58L-648.31,854.42z M-623.5,786.37
			c0.02,3.84-2.82,6.92-7.44,6.92c-4.41,0-7.23-3.08-7.22-6.92c-0.02-3.96,2.89-6.94,7.35-6.94
			C-626.34,779.43-623.56,782.41-623.5,786.37z"/>
		<path class="st2" d="M-588.77,793.59h-10.69c-1.62,0-2.94-1.31-2.94-2.94v-5.78c0-1.62,1.31-2.94,2.94-2.94h41.36
			c1.62,0,2.94,1.31,2.94,2.94v5.78c0,1.62-1.31,2.94-2.94,2.94h-10.92c-1.62,0-2.94,1.31-2.94,2.94v43.85
			c0,1.62-1.31,2.94-2.94,2.94h-8c-1.62,0-2.94-1.31-2.94-2.94v-43.85C-585.83,794.9-587.15,793.59-588.77,793.59z"/>
		<path class="st2" d="M-529.78,832.44c0.42-1.73,2.27-2.69,3.92-2.03c3.46,1.37,7.84,2.44,12.3,2.44c6.37,0,9.75-2.65,9.75-6.69
			c0-3.77-2.93-5.99-10.28-8.58c-10.24-3.63-16.93-9.21-16.93-18.18c0-10.46,8.79-18.42,23.22-18.42c5.5,0,9.8,0.86,13.15,2.05
			c1.45,0.52,2.24,2.07,1.83,3.55l-1.49,5.42c-0.45,1.64-2.2,2.56-3.81,1.99c-2.49-0.89-5.83-1.7-9.89-1.7
			c-6.04,0-8.93,2.8-8.93,5.94c0,3.9,3.4,5.62,11.36,8.63c10.87,4.06,15.9,9.7,15.9,18.38c0,10.25-7.85,19.04-24.74,19.04
			c-5.62,0-11.24-1.23-15-2.72c-1.36-0.54-2.12-2-1.77-3.43L-529.78,832.44z"/>
	</g>
</g>
<rect x="-1340.44" y="-1168.8" class="st2" width="1312.72" height="1050.18"/>
<path class="st0" d="M-325.53-248.35h-717.09c-25.85,0-46.81-20.96-46.81-46.81v-717.09c0-25.85,20.96-46.81,46.81-46.81h717.09
	c25.85,0,46.81,20.96,46.81,46.81v717.09C-278.72-269.31-299.68-248.35-325.53-248.35z"/>
<g>
	<circle class="st2" cx="-684.08" cy="-714.67" r="289.92"/>
	<g>
		<g>
			<g>
				<path class="st3" d="M-553.84-851.6l-313.24,3.24c-5.07,0-8.24,4.97-5.7,8.93c0,0,1.43,1.88,1.44,1.88
					c55.28,72.56,113.27,92.85,199.82,91.83c2.15-0.03,16.16,1.24,17.1-0.14c0,0-0.16,0.23-0.16,0.23l-20.77,32.48l-5.11,8
					c-2.54,3.96-8.9,3.96-11.44,0l-6.17-8.91c-1.33-2.08-3.9-3.22-6.52-2.94l-27.87,3.12c-4.68,0.51-7.26,5.18-4.9,8.88l45.46,70.32
					c2.54,3.96,8.9,3.96,11.44,0l87.93-137.47c2.54-3.96-0.62-8.93-5.7-8.93c-22.64,0-45.28,0-67.92,0
					c-22.29,0-44.71,1.59-66.91-1.1c-10.89-1.32-21.68-3.72-31.9-7.78c-8.01-3.19-23.32-8.75-26.23-17.92
					c-3.37-10.64,16.61-8.43,22.26-8.6c11.04-0.32,22.09,0.12,33.13,0.12c18.58,0,37.16,0,55.73,0c37.1,0,74.2,0,111.3,0
					c2.36,0,4.53-1.13,5.72-2.98l14.91-23.32C-545.58-846.63-548.76-851.6-553.84-851.6z"/>
			</g>
		</g>
		<g>
			<g>
				<path class="st4" d="M-462.71-833.91c-1.03,2.41-2.45,4.73-3.84,6.91c-68.15,106.75-136.41,213.42-204.79,320.02
					c-3.19,4.97-7.2,10.46-13.09,10.92c-6.86,0.54-11.96-5.97-15.69-11.75c-36.18-56.08-72.37-112.15-108.55-168.23
					c-4.6-7.12-14.18-19.06-8.26-27.25c5.74-7.93,17.33-9.46,25.84-5.4c9.54,4.56,15.73,13.91,21.43,22.82
					c22.9,35.76,45.79,71.52,68.69,107.29c3.22,5.02,7.11,10.51,12.99,11.49c8.22,1.37,14.67-6.61,19.15-13.64
					c51.57-81.02,103.15-162.04,154.72-243.06c5.97-9.38,12.89-19.81,22.95-25.56c8.96-5.12,26.7-6.78,29.69,6.26
					C-460.77-839.98-461.44-836.88-462.71-833.91z"/>
			</g>
		</g>
	</g>
</g>
<path class="st5" d="M-782.64-755.05"/>
<g>
	<g>
		<path class="st2" d="M-876.25-325.32c0.42-1.73,2.27-2.69,3.92-2.03c3.46,1.37,7.84,2.44,12.3,2.44c6.37,0,9.75-2.65,9.75-6.69
			c0-3.77-2.93-5.99-10.28-8.58c-10.24-3.63-16.93-9.21-16.93-18.18c0-10.46,8.79-18.42,23.22-18.42c5.5,0,9.8,0.86,13.15,2.05
			c1.45,0.52,2.24,2.07,1.83,3.55l-1.49,5.42c-0.45,1.64-2.2,2.56-3.81,1.99c-2.49-0.89-5.83-1.7-9.89-1.7
			c-6.04,0-8.93,2.8-8.93,5.94c0,3.9,3.4,5.62,11.36,8.63c10.87,4.06,15.9,9.7,15.9,18.38c0,10.25-7.85,19.04-24.74,19.04
			c-5.62,0-11.24-1.23-15-2.72c-1.36-0.54-2.12-2-1.77-3.43L-876.25-325.32z"/>
		<path class="st2" d="M-782.59-337.18c0,16.29-11.54,23.73-23.49,23.73c-12.97,0-23.01-8.57-23.01-22.96
			c0-14.38,9.49-23.61,23.81-23.61C-791.65-360.02-782.59-350.64-782.59-337.18z M-814.81-336.72c0,7.61,3.21,13.38,9.12,13.38
			c5.4,0,8.82-5.41,8.82-13.45c0-6.57-2.53-13.33-8.81-13.33C-812.29-350.12-814.81-343.33-814.81-336.72z"/>
		<path class="st2" d="M-729.78-337.18c0,16.29-11.54,23.73-23.49,23.73c-12.97,0-23.01-8.57-23.01-22.96
			c0-14.38,9.49-23.61,23.81-23.61C-738.84-360.02-729.78-350.64-729.78-337.18z M-762-336.72c0,7.61,3.21,13.38,9.12,13.38
			c5.4,0,8.82-5.41,8.82-13.45c0-6.57-2.53-13.33-8.81-13.33C-759.48-350.12-762-343.33-762-336.72z"/>
		<path class="st2" d="M-721.21-344.33c0-4.88-0.07-8.51-0.2-11.64c-0.07-1.67,1.27-3.05,2.93-3.05h6.05c1.55,0,2.84,1.21,2.93,2.76
			l0.34,5.49h0.34c2.29-6.52,7.71-9.25,12.03-9.25c0.01,0,0.03,0,0.04,0c1.62,0,2.92,1.32,2.92,2.94v7.03c0,1.65-1.35,3.01-3,2.95
			c-0.24-0.01-0.48-0.01-0.74-0.01c-5.09,0-8.57,2.7-9.5,7.04c-0.17,0.88-0.26,1.96-0.26,3.08v19.62c0,1.62-1.31,2.94-2.94,2.94h-8
			c-1.62,0-2.94-1.31-2.94-2.94V-344.33z"/>
		<path class="st2" d="M-659.79-314.45c-1.42,0-2.63-1.01-2.89-2.4l-0.37-2.03h-0.29c-2.91,3.55-7.46,5.43-12.73,5.43
			c-9.08,0-14.41-6.52-14.41-13.64c0-11.61,10.39-17.12,26.16-17.09v-0.57c0-2.37-1.27-5.75-8.16-5.74c-3.24,0-6.61,0.79-9.35,1.89
			c-1.61,0.65-3.43-0.28-3.91-1.95l-0.9-3.11c-0.41-1.43,0.31-2.93,1.67-3.52c3.41-1.46,8.55-2.84,14.97-2.84
			c14.84,0,19.53,8.77,19.53,19.24v15.54c0,2.74,0.09,5.4,0.29,7.61c0.15,1.71-1.21,3.18-2.93,3.18H-659.79z M-663.92-332.49
			c0-1.7-1.43-3.07-3.13-2.93c-5.71,0.45-9.8,2.4-9.8,6.92c0,3.59,2.35,5.34,5.5,5.34c3.39,0,6.26-2.26,7.17-5.12
			c0.21-0.72,0.26-1.58,0.26-2.37V-332.49z"/>
		<path class="st2" d="M-648.31-303.34c-0.19-1.54,0.86-2.94,2.38-3.24c2.31-0.46,4.17-1.26,5.44-2.58
			c2.01-2.07,2.76-5.63,2.76-14.51v-32.41c0-1.62,1.31-2.94,2.94-2.94h8c1.62,0,2.94,1.31,2.94,2.94v35.75
			c0,9.71-2.13,15.61-6.26,19.48c-3.54,3.23-8.83,4.92-14.47,5.33c-1.54,0.11-2.89-1.04-3.08-2.58L-648.31-303.34z M-623.5-371.39
			c0.02,3.84-2.82,6.92-7.44,6.92c-4.41,0-7.23-3.08-7.22-6.92c-0.02-3.96,2.89-6.94,7.35-6.94
			C-626.34-378.33-623.56-375.35-623.5-371.39z"/>
		<path class="st2" d="M-588.77-364.17h-10.69c-1.62,0-2.94-1.31-2.94-2.94v-5.78c0-1.62,1.31-2.94,2.94-2.94h41.36
			c1.62,0,2.94,1.31,2.94,2.94v5.78c0,1.62-1.31,2.94-2.94,2.94h-10.92c-1.62,0-2.94,1.31-2.94,2.94v43.85
			c0,1.62-1.31,2.94-2.94,2.94h-8c-1.62,0-2.94-1.31-2.94-2.94v-43.85C-585.83-362.86-587.15-364.17-588.77-364.17z"/>
		<path class="st2" d="M-529.78-325.32c0.42-1.73,2.27-2.69,3.92-2.03c3.46,1.37,7.84,2.44,12.3,2.44c6.37,0,9.75-2.65,9.75-6.69
			c0-3.77-2.93-5.99-10.28-8.58c-10.24-3.63-16.93-9.21-16.93-18.18c0-10.46,8.79-18.42,23.22-18.42c5.5,0,9.8,0.86,13.15,2.05
			c1.45,0.52,2.24,2.07,1.83,3.55l-1.49,5.42c-0.45,1.64-2.2,2.56-3.81,1.99c-2.49-0.89-5.83-1.7-9.89-1.7
			c-6.04,0-8.93,2.8-8.93,5.94c0,3.9,3.4,5.62,11.36,8.63c10.87,4.06,15.9,9.7,15.9,18.38c0,10.25-7.85,19.04-24.74,19.04
			c-5.62,0-11.24-1.23-15-2.72c-1.36-0.54-2.12-2-1.77-3.43L-529.78-325.32z"/>
	</g>
</g>
<g>
	<circle class="st2" cx="-1019.01" cy="1588.54" r="138.49"/>
	<g>
		<g>
			<g>
				<path class="st3" d="M-956.79,1523.13l-149.62,1.55c-2.42,0-3.93,2.37-2.72,4.27c0,0,0.68,0.9,0.69,0.9
					c26.4,34.66,54.1,44.35,95.45,43.86c1.03-0.01,7.72,0.59,8.17-0.07c0,0-0.07,0.11-0.07,0.11l-9.92,15.52l-2.44,3.82
					c-1.21,1.89-4.25,1.89-5.46,0l-2.95-4.26c-0.63-0.99-1.86-1.54-3.11-1.41l-13.31,1.49c-2.24,0.24-3.47,2.47-2.34,4.24
					l21.71,33.59c1.21,1.89,4.25,1.89,5.46,0l42-65.67c1.21-1.89-0.3-4.27-2.72-4.27c-10.81,0-21.63,0-32.44,0
					c-10.65,0-21.36,0.76-31.96-0.53c-5.2-0.63-10.36-1.78-15.24-3.72c-3.82-1.52-11.14-4.18-12.53-8.56
					c-1.61-5.08,7.93-4.03,10.63-4.11c5.27-0.15,10.55,0.06,15.83,0.06c8.87,0,17.75,0,26.62,0c17.72,0,35.44,0,53.17,0
					c1.13,0,2.16-0.54,2.73-1.42l7.12-11.14C-952.85,1525.5-954.37,1523.13-956.79,1523.13z"/>
			</g>
		</g>
		<g>
			<g>
				<path class="st4" d="M-913.26,1531.58c-0.49,1.15-1.17,2.26-1.84,3.3c-32.55,50.99-65.16,101.94-97.82,152.86
					c-1.52,2.37-3.44,4.99-6.25,5.21c-3.28,0.26-5.71-2.85-7.5-5.61c-17.28-26.79-34.57-53.57-51.85-80.36
					c-2.2-3.4-6.77-9.11-3.95-13.02c2.74-3.79,8.28-4.52,12.34-2.58c4.56,2.18,7.51,6.64,10.24,10.9
					c10.94,17.08,21.87,34.16,32.81,51.25c1.54,2.4,3.4,5.02,6.21,5.49c3.93,0.65,7.01-3.16,9.15-6.52
					c24.63-38.7,49.27-77.4,73.9-116.1c2.85-4.48,6.16-9.46,10.96-12.21c4.28-2.45,12.75-3.24,14.18,2.99
					C-912.34,1528.68-912.66,1530.16-913.26,1531.58z"/>
			</g>
		</g>
	</g>
</g>
<path class="st5" d="M-785.53,1491.35"/>
<path class="st6" d="M-469.61,1558.02c-1.5-5.16-3.05-11.7-4.38-16.8h-0.27c-1.28,5.13-2.6,11.76-4,16.82l-3.38,12.01
	c-0.92,3.27,1.53,6.51,4.93,6.51h5.71c3.42,0,5.87-3.28,4.91-6.56L-469.61,1558.02z"/>
<path class="st6" d="M-556.05,1540.43c-1.53,0-2.85,0.03-3.99,0.09c-2.74,0.13-4.89,2.37-4.89,5.12v14.37
	c0,2.83,2.29,5.12,5.12,5.12h2.61c9.79,0,15.64-4.99,15.64-12.57C-541.56,1544.57-547.03,1540.49-556.05,1540.43z"/>
<g>
	<path class="st6" d="M-639.35,1559.18c-13.36,0-21.17,12.61-21.17,29.58c0,17.09,8.06,29.14,21.22,29.14
		c13.34,0,20.96-12.6,20.96-29.57C-618.34,1572.61-625.78,1559.18-639.35,1559.18z"/>
	<path class="st6" d="M-732.15,1559.18c-13.36,0-21.17,12.61-21.17,29.58c0,17.09,8.06,29.14,21.22,29.14
		c13.34,0,20.96-12.6,20.96-29.57C-711.15,1572.61-718.58,1559.18-732.15,1559.18z"/>
	<path class="st2" d="M-806.11,1580.33c-11.32-4.27-16.15-6.72-16.15-12.27c0-4.46,4.1-8.44,12.69-8.44c5.33,0,9.8,0.99,13.23,2.13
		c2.76,0.92,5.72-0.7,6.5-3.51l1.62-5.87c0.73-2.65-0.77-5.38-3.38-6.24c-4.6-1.51-10.4-2.57-17.68-2.57c-20.51,0-33,11.31-33,26.19
		c0,12.74,9.51,20.68,24.07,25.84c10.44,3.68,14.61,6.84,14.61,12.2c0,5.74-4.8,9.5-13.86,9.5c-5.99,0-11.85-1.35-16.63-3.13
		c-2.85-1.06-5.98,0.65-6.7,3.6l-1.52,6.22c-0.62,2.54,0.77,5.13,3.23,6.04c5.31,1.96,12.86,3.52,20.4,3.52
		c24.02,0,35.17-12.5,35.17-27.07C-783.51,1594.12-790.66,1586.1-806.11,1580.33z"/>
	<path class="st2" d="M-731.71,1543.49c-25.69,0-42.47,19.56-42.47,45.64c0,24.88,15.22,44.45,41.1,44.45
		c25.51,0,42.79-17.3,42.79-45.92C-690.29,1563.53-704.93,1543.49-731.71,1543.49z M-732.11,1617.9
		c-13.16,0-21.22-12.05-21.22-29.14c0-16.97,7.81-29.58,21.17-29.58c13.57,0,21.01,13.43,21.01,29.16
		C-711.15,1605.3-718.77,1617.9-732.11,1617.9z"/>
	<path class="st2" d="M-638.9,1543.49c-25.69,0-42.47,19.56-42.47,45.64c0,24.88,15.22,44.45,41.1,44.45
		c25.51,0,42.79-17.3,42.79-45.92C-597.49,1563.53-612.12,1543.49-638.9,1543.49z M-639.3,1617.9c-13.16,0-21.22-12.05-21.22-29.14
		c0-16.97,7.81-29.58,21.17-29.58c13.57,0,21.01,13.43,21.01,29.16C-618.34,1605.3-625.96,1617.9-639.3,1617.9z"/>
	<path class="st2" d="M-525.69,1607.54c-2.2-8.02-5.61-13.8-11.66-16.25v-0.41c7.5-2.69,15.4-10.39,15.4-21.44
		c0-8.02-2.87-14.16-8.07-18.29c-6.23-4.94-15.29-6.91-28.24-6.91c-8.25,0-15.82,0.5-21.76,1.23c-2.55,0.32-4.46,2.5-4.46,5.08v76.5
		c0,2.83,2.29,5.12,5.12,5.12h9.31c2.83,0,5.12-2.29,5.12-5.12v-24.02c0-2.83,2.29-5.12,5.12-5.12h0.75
		c8.12,0.1,11.78,3.02,14.21,13.92c1.75,7.61,3.34,13.33,4.6,16.94c0.72,2.05,2.66,3.4,4.82,3.4h9.62c3.4,0,5.86-3.24,4.93-6.51
		C-522.31,1620.61-523.99,1613.78-525.69,1607.54z M-557.2,1583.63h-2.61c-2.83,0-5.12-2.29-5.12-5.12v-14.37
		c0-2.74,2.16-4.98,4.89-5.12c1.14-0.06,2.46-0.09,3.99-0.09c9.01,0.05,14.49,4.14,14.49,12.12
		C-541.56,1578.64-547.41,1583.63-557.2,1583.63z"/>
	<path class="st2" d="M-459.33,1548.51c-0.67-2.14-2.65-3.6-4.89-3.6h-18.26c-2.25,0-4.24,1.47-4.9,3.63l-23.5,77.01
		c-1,3.29,1.46,6.61,4.9,6.61h9.58c2.3,0,4.33-1.54,4.94-3.76l4.09-14.88c0.61-2.22,2.63-3.76,4.94-3.76h17.37
		c2.26,0,4.26,1.48,4.9,3.65l4.52,15.1c0.65,2.17,2.64,3.65,4.9,3.65h10.49c3.45,0,5.91-3.35,4.89-6.64L-459.33,1548.51z
		 M-471.01,1595.06h-5.71c-3.39,0-5.85-3.24-4.93-6.51l3.38-12.01c1.4-5.07,2.71-11.69,4-16.82h0.27c1.34,5.1,2.89,11.64,4.38,16.8
		l3.51,11.98C-465.13,1591.78-467.59,1595.06-471.01,1595.06z"/>
	<path class="st2" d="M-386.66,1544.92h-9.49c-2.83,0-5.12,2.29-5.12,5.12v49.83c0,13.57-5.21,17.28-13.49,17.28
		c-1.75,0-3.46-0.14-5.04-0.38c-2.8-0.42-5.4,1.55-5.79,4.36l-0.81,5.84c-0.38,2.73,1.47,5.26,4.18,5.75
		c3.17,0.57,6.68,0.87,9.63,0.87c19.15,0,31.05-8.73,31.05-33.49v-50.06C-381.54,1547.21-383.83,1544.92-386.66,1544.92z"/>
	<path class="st2" d="M-279.66,1544.92h-56.91c-2.83,0-5.12,2.29-5.12,5.12v6.32c0,2.83,2.29,5.12,5.12,5.12h13.31
		c2.83,0,5.12,2.29,5.12,5.12v60.45c0,2.83,2.29,5.12,5.12,5.12h9.49c2.83,0,5.12-2.29,5.12-5.12v-60.45c0-2.83,2.29-5.12,5.12-5.12
		h13.64c2.83,0,5.12-2.29,5.12-5.12v-6.32C-274.54,1547.21-276.83,1544.92-279.66,1544.92z"/>
	<path class="st2" d="M-213.04,1580.33c-11.32-4.27-16.15-6.72-16.15-12.27c0-4.46,4.1-8.44,12.69-8.44c5.33,0,9.8,0.99,13.23,2.13
		c2.76,0.92,5.72-0.7,6.5-3.51l1.62-5.87c0.73-2.65-0.77-5.38-3.38-6.24c-4.6-1.51-10.4-2.57-17.68-2.57c-20.51,0-33,11.31-33,26.19
		c0,12.74,9.51,20.68,24.07,25.84c10.44,3.68,14.61,6.84,14.61,12.2c0,5.74-4.8,9.5-13.86,9.5c-5.98,0-11.85-1.35-16.63-3.13
		c-2.85-1.06-5.98,0.65-6.7,3.6l-1.52,6.22c-0.62,2.54,0.77,5.13,3.23,6.04c5.31,1.96,12.86,3.52,20.4,3.52
		c24.02,0,35.17-12.5,35.17-27.07C-190.44,1594.12-197.59,1586.1-213.04,1580.33z"/>
</g>
<path class="st0" d="M1146.15,1993.9H133.85c-25.85,0-46.81-20.96-46.81-46.81v-717.09c0-25.85,20.96-46.81,46.81-46.81h1012.3
	c25.85,0,46.81,20.96,46.81,46.81v717.09C1192.96,1972.94,1172,1993.9,1146.15,1993.9z"/>
<g>
	<circle class="st2" cx="305.07" cy="1588.54" r="138.49"/>
	<g>
		<g>
			<g>
				<path class="st3" d="M367.29,1523.13l-149.62,1.55c-2.42,0-3.93,2.37-2.72,4.27c0,0,0.68,0.9,0.69,0.9
					c26.4,34.66,54.1,44.35,95.45,43.86c1.03-0.01,7.72,0.59,8.17-0.07c0,0-0.07,0.11-0.07,0.11l-9.92,15.52l-2.44,3.82
					c-1.21,1.89-4.25,1.89-5.46,0l-2.95-4.26c-0.63-0.99-1.86-1.54-3.11-1.41l-13.31,1.49c-2.24,0.24-3.47,2.47-2.34,4.24
					l21.71,33.59c1.21,1.89,4.25,1.89,5.46,0l42-65.67c1.21-1.89-0.3-4.27-2.72-4.27c-10.81,0-21.63,0-32.44,0
					c-10.65,0-21.36,0.76-31.96-0.53c-5.2-0.63-10.36-1.78-15.24-3.72c-3.82-1.52-11.14-4.18-12.53-8.56
					c-1.61-5.08,7.93-4.03,10.63-4.11c5.27-0.15,10.55,0.06,15.83,0.06c8.87,0,17.75,0,26.62,0c17.72,0,35.44,0,53.17,0
					c1.13,0,2.16-0.54,2.73-1.42l7.12-11.14C371.23,1525.5,369.71,1523.13,367.29,1523.13z"/>
			</g>
		</g>
		<g>
			<g>
				<path class="st4" d="M410.82,1531.58c-0.49,1.15-1.17,2.26-1.84,3.3c-32.55,50.99-65.16,101.94-97.82,152.86
					c-1.52,2.37-3.44,4.99-6.25,5.21c-3.28,0.26-5.71-2.85-7.5-5.61c-17.28-26.79-34.57-53.57-51.85-80.36
					c-2.2-3.4-6.77-9.11-3.95-13.02c2.74-3.79,8.28-4.52,12.34-2.58c4.56,2.18,7.51,6.64,10.24,10.9
					c10.94,17.08,21.87,34.16,32.81,51.25c1.54,2.4,3.4,5.02,6.21,5.49c3.93,0.65,7.01-3.16,9.15-6.52
					c24.63-38.7,49.27-77.4,73.9-116.1c2.85-4.48,6.16-9.46,10.96-12.21c4.28-2.45,12.75-3.24,14.18,2.99
					C411.74,1528.68,411.42,1530.16,410.82,1531.58z"/>
			</g>
		</g>
	</g>
</g>
<path class="st5" d="M538.55,1491.35"/>
<path class="st6" d="M854.47,1558.02c-1.5-5.16-3.05-11.7-4.38-16.8h-0.27c-1.28,5.13-2.6,11.76-4,16.82l-3.38,12.01
	c-0.92,3.27,1.53,6.51,4.93,6.51h5.71c3.42,0,5.87-3.28,4.91-6.56L854.47,1558.02z"/>
<path class="st6" d="M768.03,1540.43c-1.53,0-2.85,0.03-3.99,0.09c-2.74,0.13-4.89,2.37-4.89,5.12v14.37c0,2.83,2.29,5.12,5.12,5.12
	h2.61c9.79,0,15.64-4.99,15.64-12.57C782.52,1544.57,777.05,1540.49,768.03,1540.43z"/>
<g>
	<path class="st6" d="M684.73,1559.18c-13.36,0-21.17,12.61-21.17,29.58c0,17.09,8.06,29.14,21.22,29.14
		c13.34,0,20.96-12.6,20.96-29.57C705.74,1572.61,698.3,1559.18,684.73,1559.18z"/>
	<path class="st6" d="M591.93,1559.18c-13.36,0-21.17,12.61-21.17,29.58c0,17.09,8.06,29.14,21.22,29.14
		c13.34,0,20.96-12.6,20.96-29.57C612.93,1572.61,605.5,1559.18,591.93,1559.18z"/>
	<path class="st2" d="M517.97,1580.33c-11.32-4.27-16.15-6.72-16.15-12.27c0-4.46,4.1-8.44,12.69-8.44c5.33,0,9.8,0.99,13.23,2.13
		c2.76,0.92,5.72-0.7,6.5-3.51l1.62-5.87c0.73-2.65-0.77-5.38-3.38-6.24c-4.6-1.51-10.4-2.57-17.68-2.57c-20.51,0-33,11.31-33,26.19
		c0,12.74,9.51,20.68,24.07,25.84c10.44,3.68,14.61,6.84,14.61,12.2c0,5.74-4.8,9.5-13.86,9.5c-5.99,0-11.85-1.35-16.63-3.13
		c-2.85-1.06-5.98,0.65-6.7,3.6l-1.52,6.22c-0.62,2.54,0.77,5.13,3.23,6.04c5.31,1.96,12.86,3.52,20.4,3.52
		c24.02,0,35.17-12.5,35.17-27.07C540.57,1594.12,533.42,1586.1,517.97,1580.33z"/>
	<path class="st2" d="M592.37,1543.49c-25.69,0-42.47,19.56-42.47,45.64c0,24.88,15.22,44.45,41.1,44.45
		c25.51,0,42.79-17.3,42.79-45.92C633.79,1563.53,619.15,1543.49,592.37,1543.49z M591.97,1617.9c-13.16,0-21.22-12.05-21.22-29.14
		c0-16.97,7.81-29.58,21.17-29.58c13.57,0,21.01,13.43,21.01,29.16C612.93,1605.3,605.31,1617.9,591.97,1617.9z"/>
	<path class="st2" d="M685.18,1543.49c-25.69,0-42.47,19.56-42.47,45.64c0,24.88,15.22,44.45,41.1,44.45
		c25.51,0,42.79-17.3,42.79-45.92C726.59,1563.53,711.96,1543.49,685.18,1543.49z M684.78,1617.9c-13.16,0-21.22-12.05-21.22-29.14
		c0-16.97,7.81-29.58,21.17-29.58c13.57,0,21.01,13.43,21.01,29.16C705.74,1605.3,698.12,1617.9,684.78,1617.9z"/>
	<path class="st2" d="M798.39,1607.54c-2.2-8.02-5.61-13.8-11.66-16.25v-0.41c7.5-2.69,15.4-10.39,15.4-21.44
		c0-8.02-2.87-14.16-8.08-18.29c-6.23-4.94-15.29-6.91-28.24-6.91c-8.25,0-15.82,0.5-21.76,1.23c-2.55,0.32-4.46,2.5-4.46,5.08v76.5
		c0,2.83,2.29,5.12,5.12,5.12h9.31c2.83,0,5.12-2.29,5.12-5.12v-24.02c0-2.83,2.29-5.12,5.12-5.12h0.75
		c8.12,0.1,11.78,3.02,14.21,13.92c1.75,7.61,3.34,13.33,4.6,16.94c0.72,2.05,2.66,3.4,4.82,3.4h9.62c3.4,0,5.86-3.24,4.93-6.51
		C801.77,1620.61,800.09,1613.78,798.39,1607.54z M766.88,1583.63h-2.61c-2.83,0-5.12-2.29-5.12-5.12v-14.37
		c0-2.74,2.16-4.98,4.89-5.12c1.14-0.06,2.46-0.09,3.99-0.09c9.01,0.05,14.49,4.14,14.49,12.12
		C782.52,1578.64,776.67,1583.63,766.88,1583.63z"/>
	<path class="st2" d="M864.75,1548.51c-0.67-2.14-2.65-3.6-4.89-3.6h-18.26c-2.25,0-4.24,1.47-4.9,3.63l-23.5,77.01
		c-1,3.29,1.46,6.61,4.9,6.61h9.58c2.3,0,4.33-1.54,4.94-3.76l4.09-14.88c0.61-2.22,2.63-3.76,4.94-3.76h17.37
		c2.26,0,4.26,1.48,4.9,3.65l4.52,15.1c0.65,2.17,2.64,3.65,4.9,3.65h10.49c3.45,0,5.91-3.35,4.89-6.64L864.75,1548.51z
		 M853.07,1595.06h-5.71c-3.39,0-5.85-3.24-4.93-6.51l3.38-12.01c1.4-5.07,2.71-11.69,4-16.82h0.27c1.34,5.1,2.89,11.64,4.38,16.8
		l3.51,11.98C858.95,1591.78,856.49,1595.06,853.07,1595.06z"/>
	<path class="st2" d="M937.42,1544.92h-9.49c-2.83,0-5.12,2.29-5.12,5.12v49.83c0,13.57-5.21,17.28-13.49,17.28
		c-1.75,0-3.46-0.14-5.04-0.38c-2.8-0.42-5.4,1.55-5.79,4.36l-0.81,5.84c-0.38,2.73,1.47,5.26,4.18,5.75
		c3.17,0.57,6.68,0.87,9.63,0.87c19.15,0,31.05-8.73,31.05-33.49v-50.06C942.54,1547.21,940.25,1544.92,937.42,1544.92z"/>
	<path class="st2" d="M1044.42,1544.92h-56.91c-2.83,0-5.12,2.29-5.12,5.12v6.32c0,2.83,2.29,5.12,5.12,5.12h13.31
		c2.83,0,5.12,2.29,5.12,5.12v60.45c0,2.83,2.29,5.12,5.12,5.12h9.49c2.83,0,5.12-2.29,5.12-5.12v-60.45c0-2.83,2.29-5.12,5.12-5.12
		h13.64c2.83,0,5.12-2.29,5.12-5.12v-6.32C1049.54,1547.21,1047.25,1544.92,1044.42,1544.92z"/>
	<path class="st2" d="M1111.04,1580.33c-11.32-4.27-16.15-6.72-16.15-12.27c0-4.46,4.1-8.44,12.69-8.44c5.33,0,9.8,0.99,13.23,2.13
		c2.76,0.92,5.72-0.7,6.5-3.51l1.62-5.87c0.73-2.65-0.77-5.38-3.38-6.24c-4.6-1.51-10.4-2.57-17.68-2.57c-20.51,0-33,11.31-33,26.19
		c0,12.74,9.51,20.68,24.07,25.84c10.44,3.68,14.61,6.84,14.61,12.2c0,5.74-4.8,9.5-13.86,9.5c-5.98,0-11.85-1.35-16.63-3.13
		c-2.85-1.06-5.98,0.65-6.7,3.6l-1.52,6.22c-0.62,2.54,0.77,5.13,3.23,6.04c5.31,1.96,12.86,3.52,20.4,3.52
		c24.02,0,35.17-12.5,35.17-27.07C1133.64,1594.12,1126.49,1586.1,1111.04,1580.33z"/>
</g>
<g>
	<circle class="st2" cx="642.83" cy="443.09" r="289.92"/>
	<g>
		<g>
			<g>
				<path class="st3" d="M773.08,306.16l-313.24,3.24c-5.07,0-8.24,4.97-5.7,8.93c0,0,1.43,1.88,1.44,1.88
					c55.28,72.56,113.27,92.85,199.82,91.83c2.15-0.03,16.16,1.24,17.1-0.14c0,0-0.16,0.23-0.16,0.23l-20.77,32.48l-5.11,8
					c-2.54,3.96-8.9,3.96-11.44,0l-6.17-8.91c-1.33-2.08-3.9-3.22-6.52-2.94l-27.87,3.12c-4.68,0.51-7.26,5.18-4.9,8.88l45.46,70.32
					c2.54,3.96,8.9,3.96,11.44,0l87.93-137.47c2.54-3.96-0.62-8.93-5.7-8.93c-22.64,0-45.28,0-67.92,0
					c-22.29,0-44.71,1.59-66.91-1.1c-10.89-1.32-21.68-3.72-31.9-7.78c-8.01-3.19-23.32-8.75-26.23-17.92
					c-3.37-10.64,16.61-8.43,22.26-8.6c11.04-0.32,22.09,0.12,33.13,0.12c18.58,0,37.16,0,55.73,0c37.1,0,74.2,0,111.3,0
					c2.36,0,4.53-1.13,5.72-2.98l14.91-23.32C781.33,311.13,778.15,306.16,773.08,306.16z"/>
			</g>
		</g>
		<g>
			<g>
				<path class="st4" d="M864.21,323.85c-1.03,2.41-2.45,4.73-3.84,6.91c-68.15,106.75-136.41,213.42-204.79,320.02
					c-3.19,4.97-7.2,10.46-13.09,10.92c-6.86,0.54-11.96-5.97-15.69-11.75c-36.18-56.08-72.37-112.15-108.55-168.23
					c-4.6-7.12-14.18-19.06-8.26-27.25c5.74-7.93,17.33-9.46,25.84-5.4c9.54,4.56,15.73,13.91,21.43,22.82
					c22.9,35.76,45.79,71.52,68.69,107.29c3.22,5.02,7.11,10.51,12.99,11.49c8.22,1.37,14.67-6.61,19.15-13.64
					C709.65,496,761.22,414.98,812.8,333.96c5.97-9.38,12.89-19.81,22.95-25.56c8.96-5.12,26.7-6.77,29.69,6.26
					C866.15,317.78,865.47,320.88,864.21,323.85z"/>
			</g>
		</g>
	</g>
</g>
<path class="st5" d="M538.55,402.71"/>
<path class="st2" d="M415.6,833.18c0.51-2.08,2.71-3.28,4.71-2.53c3.36,1.26,7.49,2.2,11.7,2.2c6.37,0,9.75-2.65,9.75-6.69
	c0-3.77-2.93-5.99-10.28-8.58c-10.24-3.63-16.93-9.21-16.93-18.18c0-10.46,8.79-18.42,23.22-18.42c5.12,0,9.2,0.74,12.44,1.81
	c1.84,0.6,2.89,2.53,2.38,4.39l-1.14,4.13c-0.54,1.98-2.63,3.12-4.57,2.47c-2.42-0.8-5.56-1.5-9.31-1.5c-6.04,0-8.93,2.8-8.93,5.94
	c0,3.9,3.4,5.62,11.36,8.63c10.87,4.06,15.9,9.7,15.9,18.38c0,10.25-7.85,19.04-24.74,19.04c-5.31,0-10.62-1.1-14.35-2.48
	c-1.73-0.64-2.71-2.46-2.27-4.25L415.6,833.18z"/>
<path class="st2" d="M521.48,812.01c0,20.14-12.15,32.31-30.1,32.31c-18.2,0-28.91-13.77-28.91-31.27
	c0-18.35,11.8-32.11,29.88-32.11C511.19,780.94,521.48,795.03,521.48,812.01z M477.14,812.78c0,12.02,5.67,20.5,14.93,20.5
	c9.38,0,14.75-8.86,14.75-20.8c0-11.06-5.23-20.51-14.78-20.51C482.63,791.97,477.14,800.84,477.14,812.78z"/>
<path class="st2" d="M586.77,812.01c0,20.14-12.15,32.31-30.1,32.31c-18.2,0-28.91-13.77-28.91-31.27
	c0-18.35,11.8-32.11,29.88-32.11C576.47,780.94,586.77,795.03,586.77,812.01z M542.43,812.78c0,12.02,5.67,20.5,14.93,20.5
	c9.38,0,14.75-8.86,14.75-20.8c0-11.06-5.23-20.51-14.78-20.51C547.92,791.97,542.43,800.84,542.43,812.78z"/>
<path class="st2" d="M595.92,785.9c0-1.81,1.34-3.35,3.14-3.57c4.18-0.52,9.5-0.87,15.31-0.87c9.1,0,15.48,1.39,19.86,4.86
	c3.66,2.91,5.68,7.22,5.68,12.87c0,7.77-5.56,13.19-10.84,15.08v0.29c4.26,1.72,6.65,5.79,8.2,11.43c1.2,4.39,2.38,9.2,3.39,12.74
	c0.65,2.3-1.08,4.58-3.47,4.58h-6.77c-1.53,0-2.89-0.95-3.39-2.39c-0.89-2.54-2.01-6.56-3.24-11.91c-1.71-7.67-4.29-9.72-10-9.79
	h-0.52c-1.99,0-3.6,1.61-3.6,3.6v16.9c0,1.99-1.61,3.6-3.6,3.6h-6.55c-1.99,0-3.6-1.61-3.6-3.6V785.9z M609.68,805.57
	c0,1.99,1.61,3.6,3.6,3.6h1.83c6.89,0,11-3.51,11-8.84c0-5.62-3.85-8.49-10.19-8.53c-1.07,0-2,0.02-2.8,0.06
	c-1.93,0.09-3.44,1.67-3.44,3.6V805.57z"/>
<path class="st2" d="M664.24,830.2l-2.88,10.46c-0.43,1.56-1.85,2.65-3.47,2.65h-6.74c-2.42,0-4.15-2.34-3.44-4.65l16.53-54.17
	c0.46-1.52,1.86-2.55,3.44-2.55h12.84c1.58,0,2.97,1.03,3.44,2.53l16.86,54.17c0.72,2.32-1.01,4.67-3.44,4.67h-7.38
	c-1.59,0-2.99-1.04-3.45-2.57l-3.18-10.62c-0.46-1.52-1.86-2.57-3.45-2.57h-12.22C666.09,827.56,664.67,828.64,664.24,830.2z
	 M675.75,817.22c2.4,0,4.13-2.31,3.46-4.61l-2.47-8.43c-1.05-3.63-2.14-8.23-3.08-11.82h-0.19c-0.9,3.61-1.83,8.27-2.81,11.83
	l-2.38,8.45c-0.65,2.3,1.08,4.58,3.47,4.58H675.75z"/>
<path class="st2" d="M728.41,781.94h6.67c1.99,0,3.6,1.61,3.6,3.6v35.22c0,17.42-8.37,23.56-21.84,23.56
	c-2.08,0-4.55-0.21-6.77-0.61c-1.91-0.35-3.21-2.13-2.94-4.05l0.57-4.11c0.28-1.97,2.1-3.36,4.07-3.07
	c1.12,0.17,2.31,0.27,3.55,0.27c5.82,0,9.49-2.61,9.49-12.16v-35.05C724.81,783.55,726.42,781.94,728.41,781.94z"/>
<path class="st2" d="M773.35,793.59h-9.36c-1.99,0-3.6-1.61-3.6-3.6v-4.45c0-1.99,1.61-3.6,3.6-3.6h40.04c1.99,0,3.6,1.61,3.6,3.6
	v4.45c0,1.99-1.61,3.6-3.6,3.6h-9.59c-1.99,0-3.6,1.61-3.6,3.6v42.52c0,1.99-1.61,3.6-3.6,3.6h-6.67c-1.99,0-3.6-1.61-3.6-3.6
	v-42.52C776.95,795.2,775.34,793.59,773.35,793.59z"/>
<path class="st2" d="M832.82,833.18c0.51-2.08,2.71-3.28,4.71-2.53c3.36,1.26,7.49,2.2,11.7,2.2c6.37,0,9.75-2.65,9.75-6.69
	c0-3.77-2.93-5.99-10.28-8.58c-10.24-3.63-16.93-9.21-16.93-18.18c0-10.46,8.79-18.42,23.22-18.42c5.12,0,9.2,0.74,12.44,1.81
	c1.84,0.6,2.89,2.53,2.38,4.39l-1.14,4.13c-0.54,1.98-2.63,3.12-4.57,2.47c-2.42-0.8-5.56-1.5-9.31-1.5c-6.04,0-8.93,2.8-8.93,5.94
	c0,3.9,3.4,5.62,11.36,8.63c10.87,4.06,15.9,9.7,15.9,18.38c0,10.25-7.85,19.04-24.74,19.04c-5.31,0-10.62-1.1-14.35-2.48
	c-1.73-0.64-2.71-2.46-2.27-4.25L832.82,833.18z"/>
<rect x="-11.41" y="-1167.1" class="st2" width="1308.49" height="1046.79"/>
<path class="st0" d="M1001.38-248.35H284.29c-25.85,0-46.81-20.96-46.81-46.81v-717.09c0-25.85,20.96-46.81,46.81-46.81h717.09
	c25.85,0,46.81,20.96,46.81,46.81v717.09C1048.19-269.31,1027.23-248.35,1001.38-248.35z"/>
<g>
	<circle class="st2" cx="642.83" cy="-714.67" r="289.92"/>
	<g>
		<g>
			<g>
				<path class="st3" d="M773.08-851.6l-313.24,3.24c-5.07,0-8.24,4.97-5.7,8.93c0,0,1.43,1.88,1.44,1.88
					c55.28,72.56,113.27,92.85,199.82,91.83c2.15-0.03,16.16,1.24,17.1-0.14c0,0-0.16,0.23-0.16,0.23l-20.77,32.48l-5.11,8
					c-2.54,3.96-8.9,3.96-11.44,0l-6.17-8.91c-1.33-2.08-3.9-3.22-6.52-2.94l-27.87,3.12c-4.68,0.51-7.26,5.18-4.9,8.88l45.46,70.32
					c2.54,3.96,8.9,3.96,11.44,0l87.93-137.47c2.54-3.96-0.62-8.93-5.7-8.93c-22.64,0-45.28,0-67.92,0
					c-22.29,0-44.71,1.59-66.91-1.1c-10.89-1.32-21.68-3.72-31.9-7.78c-8.01-3.19-23.32-8.75-26.23-17.92
					c-3.37-10.64,16.61-8.43,22.26-8.6c11.04-0.32,22.09,0.12,33.13,0.12c18.58,0,37.16,0,55.73,0c37.1,0,74.2,0,111.3,0
					c2.36,0,4.53-1.13,5.72-2.98l14.91-23.32C781.33-846.63,778.15-851.6,773.08-851.6z"/>
			</g>
		</g>
		<g>
			<g>
				<path class="st4" d="M864.21-833.91c-1.03,2.41-2.45,4.73-3.84,6.91c-68.15,106.75-136.41,213.42-204.79,320.02
					c-3.19,4.97-7.2,10.46-13.09,10.92c-6.86,0.54-11.96-5.97-15.69-11.75c-36.18-56.08-72.37-112.15-108.55-168.23
					c-4.6-7.12-14.18-19.06-8.26-27.25c5.74-7.93,17.33-9.46,25.84-5.4c9.54,4.56,15.73,13.91,21.43,22.82
					c22.9,35.76,45.79,71.52,68.69,107.29c3.22,5.02,7.11,10.51,12.99,11.49c8.22,1.37,14.67-6.61,19.15-13.64
					c51.57-81.02,103.15-162.04,154.72-243.06c5.97-9.38,12.89-19.81,22.95-25.56c8.96-5.12,26.7-6.78,29.69,6.26
					C866.15-839.98,865.47-836.88,864.21-833.91z"/>
			</g>
		</g>
	</g>
</g>
<path class="st5" d="M538.55-755.05"/>
<path class="st2" d="M415.6-324.58c0.51-2.08,2.71-3.28,4.71-2.53c3.36,1.26,7.49,2.2,11.7,2.2c6.37,0,9.75-2.65,9.75-6.69
	c0-3.77-2.93-5.99-10.28-8.58c-10.24-3.63-16.93-9.21-16.93-18.18c0-10.46,8.79-18.42,23.22-18.42c5.12,0,9.2,0.74,12.44,1.81
	c1.84,0.6,2.89,2.53,2.38,4.39l-1.14,4.13c-0.54,1.98-2.63,3.12-4.57,2.47c-2.42-0.8-5.56-1.5-9.31-1.5c-6.04,0-8.93,2.8-8.93,5.94
	c0,3.9,3.4,5.62,11.36,8.63c10.87,4.06,15.9,9.7,15.9,18.38c0,10.25-7.85,19.04-24.74,19.04c-5.31,0-10.62-1.1-14.35-2.48
	c-1.73-0.64-2.71-2.46-2.27-4.25L415.6-324.58z"/>
<path class="st2" d="M521.48-345.75c0,20.14-12.15,32.31-30.1,32.31c-18.2,0-28.91-13.77-28.91-31.27
	c0-18.35,11.8-32.11,29.88-32.11C511.19-376.82,521.48-362.73,521.48-345.75z M477.14-344.98c0,12.02,5.67,20.5,14.93,20.5
	c9.38,0,14.75-8.86,14.75-20.8c0-11.06-5.23-20.51-14.78-20.51C482.63-365.79,477.14-356.92,477.14-344.98z"/>
<path class="st2" d="M586.77-345.75c0,20.14-12.15,32.31-30.1,32.31c-18.2,0-28.91-13.77-28.91-31.27
	c0-18.35,11.8-32.11,29.88-32.11C576.47-376.82,586.77-362.73,586.77-345.75z M542.43-344.98c0,12.02,5.67,20.5,14.93,20.5
	c9.38,0,14.75-8.86,14.75-20.8c0-11.06-5.23-20.51-14.78-20.51C547.92-365.79,542.43-356.92,542.43-344.98z"/>
<path class="st2" d="M595.92-371.86c0-1.81,1.34-3.35,3.14-3.57c4.18-0.52,9.5-0.87,15.31-0.87c9.1,0,15.48,1.39,19.86,4.86
	c3.66,2.91,5.68,7.22,5.68,12.87c0,7.77-5.56,13.19-10.84,15.08v0.29c4.26,1.72,6.65,5.79,8.2,11.43c1.2,4.39,2.38,9.2,3.39,12.74
	c0.65,2.3-1.08,4.58-3.47,4.58h-6.77c-1.53,0-2.89-0.95-3.39-2.39c-0.89-2.54-2.01-6.56-3.24-11.91c-1.71-7.67-4.29-9.72-10-9.79
	h-0.52c-1.99,0-3.6,1.61-3.6,3.6v16.9c0,1.99-1.61,3.6-3.6,3.6h-6.55c-1.99,0-3.6-1.61-3.6-3.6V-371.86z M609.68-352.19
	c0,1.99,1.61,3.6,3.6,3.6h1.83c6.89,0,11-3.51,11-8.84c0-5.62-3.85-8.49-10.19-8.53c-1.07,0-2,0.02-2.8,0.06
	c-1.93,0.09-3.44,1.67-3.44,3.6V-352.19z"/>
<path class="st2" d="M664.24-327.56l-2.88,10.46c-0.43,1.56-1.85,2.65-3.47,2.65h-6.74c-2.42,0-4.15-2.34-3.44-4.65l16.53-54.17
	c0.46-1.52,1.86-2.55,3.44-2.55h12.84c1.58,0,2.97,1.03,3.44,2.53l16.86,54.17c0.72,2.32-1.01,4.67-3.44,4.67h-7.38
	c-1.59,0-2.99-1.04-3.45-2.57l-3.18-10.62c-0.46-1.52-1.86-2.57-3.45-2.57h-12.22C666.09-330.2,664.67-329.12,664.24-327.56z
	 M675.75-340.54c2.4,0,4.13-2.31,3.46-4.61l-2.47-8.43c-1.05-3.63-2.14-8.23-3.08-11.82h-0.19c-0.9,3.61-1.83,8.27-2.81,11.83
	l-2.38,8.45c-0.65,2.3,1.08,4.58,3.47,4.58H675.75z"/>
<path class="st2" d="M728.41-375.82h6.67c1.99,0,3.6,1.61,3.6,3.6v35.22c0,17.42-8.37,23.56-21.84,23.56
	c-2.08,0-4.55-0.21-6.77-0.61c-1.91-0.35-3.21-2.13-2.94-4.05l0.57-4.11c0.28-1.97,2.1-3.36,4.07-3.07
	c1.12,0.17,2.31,0.27,3.55,0.27c5.82,0,9.49-2.61,9.49-12.16v-35.05C724.81-374.21,726.42-375.82,728.41-375.82z"/>
<path class="st2" d="M773.35-364.17h-9.36c-1.99,0-3.6-1.61-3.6-3.6v-4.45c0-1.99,1.61-3.6,3.6-3.6h40.04c1.99,0,3.6,1.61,3.6,3.6
	v4.45c0,1.99-1.61,3.6-3.6,3.6h-9.59c-1.99,0-3.6,1.61-3.6,3.6v42.52c0,1.99-1.61,3.6-3.6,3.6h-6.67c-1.99,0-3.6-1.61-3.6-3.6
	v-42.52C776.95-362.56,775.34-364.17,773.35-364.17z"/>
<path class="st2" d="M832.82-324.58c0.51-2.08,2.71-3.28,4.71-2.53c3.36,1.26,7.49,2.2,11.7,2.2c6.37,0,9.75-2.65,9.75-6.69
	c0-3.77-2.93-5.99-10.28-8.58c-10.24-3.63-16.93-9.21-16.93-18.18c0-10.46,8.79-18.42,23.22-18.42c5.12,0,9.2,0.74,12.44,1.81
	c1.84,0.6,2.89,2.53,2.38,4.39l-1.14,4.13c-0.54,1.98-2.63,3.12-4.57,2.47c-2.42-0.8-5.56-1.5-9.31-1.5c-6.04,0-8.93,2.8-8.93,5.94
	c0,3.9,3.4,5.62,11.36,8.63c10.87,4.06,15.9,9.7,15.9,18.38c0,10.25-7.85,19.04-24.74,19.04c-5.31,0-10.62-1.1-14.35-2.48
	c-1.73-0.64-2.71-2.46-2.27-4.25L832.82-324.58z"/>
</svg>
