<?xml version="1.0" encoding="utf-8"?>
<!-- Generator: Adobe Illustrator 23.0.5, SVG Export Plug-In . SVG Version: 6.00 Build 0)  -->
<svg version="1.1" id="Layer_1" xmlns="http://www.w3.org/2000/svg" xmlns:xlink="http://www.w3.org/1999/xlink" x="0px" y="0px"
	 viewBox="0 0 1280 1024" style="enable-background:new 0 0 1280 1024;" xml:space="preserve">
<style type="text/css">
	.st0{fill:#FFFFFF;}
	.st1{fill:#EE5A24;}
	.st2{fill:#330033;}
	.st3{fill:#EEEBDD;}
	.st4{fill:#EB596E;}
	.st5{fill:#663333;}
	.st6{fill:none;}
</style>
<path class="st0" d="M998.55-179.23H281.45c-25.85,0-46.81-20.96-46.81-46.81v-717.09c0-25.85,20.96-46.81,46.81-46.81h717.09
	c25.85,0,46.81,20.96,46.81,46.81v717.09C1045.36-200.19,1024.4-179.23,998.55-179.23z"/>
<rect x="-4009.68" y="-2246.4" class="st1" width="1280" height="1024"/>
<g>
	<path d="M-3374.16-1812.38c2.36-0.03,17.72,1.36,18.75-0.15l-0.17,0.25l-22.77,35.61l-5.61,8.77c-2.78,4.35-9.76,4.35-12.54,0
		l-6.76-9.77c-1.46-2.28-4.28-3.53-7.15-3.23l-30.56,3.42c-5.14,0.56-7.96,5.68-5.37,9.73l49.84,77.1c2.78,4.35,9.76,4.35,12.54,0
		l96.4-150.72c2.78-4.35-0.68-9.79-6.25-9.79c-24.82,0-49.64,0-74.46,0c-24.44,0-49.02,1.75-73.36-1.21
		c-11.94-1.45-23.77-4.08-34.97-8.53c-8.78-3.49-25.57-9.6-28.76-19.65c-3.7-11.66,18.21-9.24,24.4-9.42
		c12.11-0.35,24.22,0.13,36.33,0.13c20.37,0,40.74,0,61.11,0c40.68,0,81.36,0,122.03,0c2.59,0,4.96-1.24,6.27-3.26l16.35-25.57
		c2.78-4.35-0.71-9.79-6.27-9.79l-343.43,3.55c-5.56,0-9.03,5.45-6.25,9.79c0,0,1.57,2.06,1.57,2.07
		C-3532.64-1833.51-3469.06-1811.26-3374.16-1812.38z"/>
	<path d="M-3143.88-1919.15c-3.28-14.3-22.73-12.49-32.55-6.87c-11.03,6.31-18.62,17.75-25.16,28.03
		c-56.54,88.83-113.09,177.66-169.63,266.49c-4.91,7.71-11.98,16.46-20.99,14.96c-6.45-1.07-10.72-7.09-14.24-12.6
		c-25.1-39.21-50.21-78.42-75.31-117.63c-6.25-9.77-13.03-20.01-23.5-25.02c-9.33-4.46-22.04-2.78-28.33,5.92
		c-6.49,8.98,4.02,22.07,9.06,29.88c39.67,61.48,79.34,122.96,119.02,184.44c4.09,6.34,9.68,13.47,17.2,12.88
		c6.45-0.5,10.85-6.52,14.35-11.97c74.98-116.87,149.82-233.83,224.54-350.87c1.53-2.39,3.09-4.94,4.21-7.58
		C-3143.83-1912.34-3143.1-1915.73-3143.88-1919.15z"/>
</g>
<rect x="-2669.47" y="-2261.72" class="st2" width="1318.3" height="1054.64"/>
<path class="st3" d="M-2014.8-1812.38c2.36-0.03,17.72,1.36,18.75-0.15l-0.17,0.25l-22.77,35.61l-5.61,8.77
	c-2.78,4.35-9.76,4.35-12.54,0l-6.76-9.77c-1.46-2.28-4.28-3.53-7.15-3.23l-30.56,3.42c-5.14,0.56-7.96,5.68-5.37,9.73l49.84,77.1
	c2.78,4.35,9.76,4.35,12.54,0l96.4-150.72c2.78-4.35-0.68-9.79-6.25-9.79c-24.82,0-49.64,0-74.46,0c-24.44,0-49.02,1.75-73.36-1.21
	c-11.94-1.45-23.77-4.08-34.97-8.53c-8.78-3.49-25.57-9.6-28.76-19.65c-3.7-11.66,18.21-9.24,24.4-9.42
	c12.11-0.35,24.22,0.13,36.32,0.13c20.37,0,40.74,0,61.11,0c40.68,0,81.36,0,122.03,0c2.59,0,4.96-1.24,6.27-3.26l16.35-25.57
	c2.78-4.35-0.71-9.79-6.27-9.79l-343.43,3.55c-5.56,0-9.03,5.45-6.25,9.79c0,0,1.57,2.06,1.57,2.07
	C-2173.28-1833.51-2109.7-1811.26-2014.8-1812.38z"/>
<path class="st4" d="M-1784.52-1919.15c-3.28-14.3-22.73-12.49-32.55-6.87c-11.03,6.31-18.62,17.75-25.16,28.03
	c-56.54,88.83-113.09,177.66-169.63,266.49c-4.91,7.71-11.98,16.46-20.99,14.96c-6.45-1.07-10.72-7.09-14.24-12.6
	c-25.1-39.21-50.21-78.42-75.31-117.63c-6.25-9.77-13.03-20.01-23.5-25.02c-9.33-4.46-22.04-2.78-28.33,5.92
	c-6.49,8.98,4.02,22.07,9.06,29.88c39.67,61.48,79.34,122.96,119.02,184.44c4.09,6.34,9.68,13.47,17.2,12.88
	c6.45-0.5,10.85-6.52,14.35-11.97c74.98-116.87,149.82-233.83,224.54-350.87c1.53-2.39,3.09-4.94,4.21-7.58
	C-1784.47-1912.34-1783.74-1915.73-1784.52-1919.15z"/>
<path class="st5" d="M-3459.1-1766.83"/>
<path class="st5" d="M-2431.54-1444.49"/>
<path class="st5" d="M-2431.54-2034.98"/>
<circle class="st2" cx="-672.3" cy="-1738.02" r="433.98"/>
<g>
	<g>
		<g>
			<path class="st3" d="M-477.34-1943l-468.89,4.85c-7.6,0-12.33,7.44-8.53,13.37c0,0,2.15,2.82,2.15,2.82
				c82.74,108.62,169.55,138.99,299.11,137.46c3.22-0.04,24.19,1.86,25.6-0.2c0,0-0.23,0.34-0.23,0.34l-31.09,48.62l-7.66,11.97
				c-3.8,5.93-13.32,5.93-17.12,0l-9.23-13.34c-1.99-3.11-5.84-4.83-9.76-4.4l-41.72,4.67c-7.01,0.76-10.87,7.75-7.33,13.29
				l68.05,105.26c3.8,5.93,13.32,5.93,17.12,0l131.62-205.78c3.8-5.93-0.94-13.37-8.53-13.37c-33.89,0-67.78,0-101.67,0
				c-33.36,0-66.93,2.38-100.16-1.65c-16.31-1.98-32.46-5.56-47.74-11.65c-11.99-4.77-34.91-13.1-39.26-26.83
				c-5.05-15.92,24.87-12.62,33.31-12.87c16.53-0.48,33.06,0.17,49.59,0.17c27.81,0,55.62,0,83.43,0c55.54,0,111.08,0,166.61,0
				c3.54,0,6.78-1.69,8.56-4.46l22.32-34.91C-464.98-1935.56-469.74-1943-477.34-1943z"/>
		</g>
	</g>
	<g>
		<g>
			<path class="st4" d="M-340.93-1916.52c-1.54,3.6-3.67,7.08-5.75,10.35c-102.01,159.79-204.2,319.47-306.56,479.04
				c-4.77,7.43-10.78,15.65-19.59,16.34c-10.27,0.8-17.9-8.93-23.49-17.59c-54.16-83.94-108.33-167.88-162.49-251.82
				c-6.88-10.66-21.23-28.54-12.37-40.79c8.59-11.88,25.95-14.17,38.68-8.08c14.29,6.83,23.54,20.82,32.08,34.16
				c34.27,53.53,68.55,107.07,102.82,160.6c4.81,7.52,10.64,15.73,19.45,17.2c12.3,2.04,21.97-9.9,28.66-20.42
				c77.2-121.28,154.4-242.56,231.6-363.84c8.94-14.04,19.29-29.65,34.35-38.27c13.41-7.67,39.97-10.14,44.44,9.38
				C-338.02-1925.6-339.03-1920.97-340.93-1916.52z"/>
		</g>
	</g>
</g>
<path class="st5" d="M-793.9-1786.5"/>
<g>
	<circle class="st2" cx="640" cy="-645.55" r="289.92"/>
	<g>
		<g>
			<g>
				<path class="st3" d="M770.24-782.48l-313.24,3.24c-5.07,0-8.24,4.97-5.7,8.93c0,0,1.43,1.88,1.44,1.88
					c55.28,72.56,113.27,92.85,199.82,91.83c2.15-0.03,16.16,1.24,17.1-0.14c0,0-0.16,0.23-0.16,0.23l-20.77,32.48l-5.11,8
					c-2.54,3.96-8.9,3.96-11.44,0l-6.17-8.91c-1.33-2.08-3.9-3.22-6.52-2.94l-27.87,3.12c-4.68,0.51-7.26,5.18-4.9,8.88l45.46,70.32
					c2.54,3.96,8.9,3.96,11.44,0l87.93-137.47c2.54-3.96-0.62-8.93-5.7-8.93c-22.64,0-45.28,0-67.92,0
					c-22.29,0-44.71,1.59-66.91-1.1c-10.89-1.32-21.68-3.72-31.9-7.78c-8.01-3.19-23.32-8.75-26.23-17.92
					c-3.37-10.64,16.61-8.43,22.26-8.6c11.04-0.32,22.09,0.12,33.13,0.12c18.58,0,37.16,0,55.73,0c37.1,0,74.2,0,111.3,0
					c2.36,0,4.53-1.13,5.72-2.98l14.91-23.32C778.5-777.51,775.32-782.48,770.24-782.48z"/>
			</g>
		</g>
		<g>
			<g>
				<path class="st4" d="M861.37-764.79c-1.03,2.41-2.45,4.73-3.84,6.91c-68.15,106.75-136.41,213.42-204.79,320.02
					c-3.19,4.97-7.2,10.46-13.09,10.92c-6.86,0.54-11.96-5.97-15.69-11.75c-36.18-56.08-72.37-112.15-108.55-168.23
					c-4.6-7.12-14.18-19.06-8.26-27.25c5.74-7.93,17.33-9.46,25.84-5.4c9.54,4.56,15.73,13.91,21.43,22.82
					c22.9,35.76,45.79,71.52,68.69,107.29c3.22,5.02,7.11,10.51,12.99,11.49c8.22,1.37,14.67-6.61,19.15-13.64
					c51.57-81.02,103.15-162.04,154.72-243.06c5.97-9.38,12.89-19.81,22.95-25.56c8.96-5.12,26.7-6.78,29.69,6.26
					C863.31-770.86,862.64-767.76,861.37-764.79z"/>
			</g>
		</g>
	</g>
</g>
<path class="st5" d="M541.44-685.93"/>
<g>
	<g>
		<path class="st2" d="M447.83-256.2c0.42-1.73,2.27-2.69,3.92-2.03c3.46,1.37,7.84,2.44,12.3,2.44c6.37,0,9.75-2.65,9.75-6.69
			c0-3.77-2.93-5.99-10.28-8.58c-10.24-3.63-16.93-9.21-16.93-18.18c0-10.46,8.79-18.42,23.22-18.42c5.5,0,9.8,0.86,13.15,2.05
			c1.45,0.52,2.24,2.07,1.83,3.55l-1.49,5.42c-0.45,1.64-2.2,2.56-3.81,1.99c-2.49-0.89-5.83-1.7-9.89-1.7
			c-6.04,0-8.93,2.8-8.93,5.94c0,3.9,3.4,5.62,11.36,8.63c10.87,4.06,15.9,9.7,15.9,18.38c0,10.25-7.85,19.04-24.74,19.04
			c-5.62,0-11.24-1.23-15-2.72c-1.36-0.54-2.12-2-1.77-3.43L447.83-256.2z"/>
		<path class="st2" d="M541.49-268.06c0,16.29-11.54,23.73-23.49,23.73c-12.97,0-23.01-8.57-23.01-22.96
			c0-14.38,9.49-23.61,23.81-23.61C532.43-290.9,541.49-281.52,541.49-268.06z M509.27-267.6c0,7.61,3.21,13.38,9.12,13.38
			c5.4,0,8.82-5.41,8.82-13.45c0-6.57-2.53-13.33-8.81-13.33C511.79-281,509.27-274.21,509.27-267.6z"/>
		<path class="st2" d="M594.3-268.06c0,16.29-11.54,23.73-23.49,23.73c-12.97,0-23.01-8.57-23.01-22.96
			c0-14.38,9.49-23.61,23.81-23.61C585.24-290.9,594.3-281.52,594.3-268.06z M562.08-267.6c0,7.61,3.21,13.38,9.12,13.38
			c5.4,0,8.82-5.41,8.82-13.45c0-6.57-2.53-13.33-8.81-13.33C564.6-281,562.08-274.21,562.08-267.6z"/>
		<path class="st2" d="M602.87-275.21c0-4.88-0.07-8.51-0.2-11.64c-0.07-1.67,1.27-3.05,2.93-3.05h6.05c1.55,0,2.84,1.21,2.93,2.76
			l0.34,5.49h0.34c2.29-6.52,7.71-9.25,12.03-9.25c0.01,0,0.03,0,0.04,0c1.62,0,2.92,1.32,2.92,2.94v7.03c0,1.65-1.35,3.01-3,2.95
			c-0.24-0.01-0.48-0.01-0.74-0.01c-5.09,0-8.57,2.7-9.5,7.04c-0.17,0.88-0.26,1.96-0.26,3.08v19.62c0,1.62-1.31,2.94-2.94,2.94h-8
			c-1.62,0-2.94-1.31-2.94-2.94V-275.21z"/>
		<path class="st2" d="M664.29-245.33c-1.42,0-2.63-1.01-2.89-2.4l-0.37-2.03h-0.29c-2.91,3.55-7.46,5.43-12.73,5.43
			c-9.08,0-14.41-6.52-14.41-13.64c0-11.61,10.39-17.12,26.16-17.09v-0.57c0-2.37-1.27-5.75-8.16-5.74c-3.24,0-6.61,0.79-9.35,1.89
			c-1.61,0.65-3.43-0.28-3.91-1.95l-0.9-3.11c-0.41-1.43,0.31-2.93,1.67-3.52c3.41-1.46,8.55-2.84,14.97-2.84
			c14.84,0,19.53,8.77,19.53,19.24v15.54c0,2.74,0.09,5.4,0.29,7.61c0.15,1.71-1.21,3.18-2.93,3.18H664.29z M660.16-263.37
			c0-1.7-1.43-3.07-3.13-2.93c-5.71,0.45-9.8,2.4-9.8,6.92c0,3.59,2.35,5.34,5.5,5.34c3.39,0,6.26-2.26,7.17-5.12
			c0.21-0.72,0.26-1.58,0.26-2.37V-263.37z"/>
		<path class="st2" d="M675.77-234.22c-0.19-1.54,0.86-2.94,2.38-3.24c2.31-0.46,4.17-1.26,5.44-2.58
			c2.01-2.07,2.76-5.63,2.76-14.51v-32.41c0-1.62,1.31-2.94,2.94-2.94h8c1.62,0,2.94,1.31,2.94,2.94v35.75
			c0,9.71-2.13,15.61-6.26,19.48c-3.54,3.23-8.83,4.92-14.47,5.33c-1.54,0.11-2.89-1.04-3.08-2.58L675.77-234.22z M700.58-302.27
			c0.02,3.84-2.82,6.92-7.44,6.92c-4.41,0-7.23-3.08-7.22-6.92c-0.02-3.96,2.89-6.94,7.35-6.94
			C697.74-309.21,700.52-306.23,700.58-302.27z"/>
		<path class="st2" d="M735.31-295.05h-10.69c-1.62,0-2.94-1.31-2.94-2.94v-5.78c0-1.62,1.31-2.94,2.94-2.94h41.37
			c1.62,0,2.94,1.31,2.94,2.94v5.78c0,1.62-1.31,2.94-2.94,2.94h-10.92c-1.62,0-2.94,1.31-2.94,2.94v43.85
			c0,1.62-1.31,2.94-2.94,2.94h-8c-1.62,0-2.94-1.31-2.94-2.94v-43.85C738.25-293.74,736.93-295.05,735.31-295.05z"/>
		<path class="st2" d="M794.3-256.2c0.42-1.73,2.27-2.69,3.92-2.03c3.46,1.37,7.84,2.44,12.3,2.44c6.37,0,9.75-2.65,9.75-6.69
			c0-3.77-2.93-5.99-10.28-8.58c-10.24-3.63-16.93-9.21-16.93-18.18c0-10.46,8.79-18.42,23.22-18.42c5.5,0,9.8,0.86,13.15,2.05
			c1.45,0.52,2.24,2.07,1.83,3.55l-1.49,5.42c-0.45,1.64-2.2,2.56-3.8,1.99c-2.49-0.89-5.83-1.7-9.89-1.7
			c-6.04,0-8.93,2.8-8.93,5.94c0,3.9,3.4,5.62,11.36,8.63c10.87,4.06,15.9,9.7,15.9,18.38c0,10.25-7.85,19.04-24.74,19.04
			c-5.62,0-11.24-1.23-15-2.72c-1.36-0.54-2.12-2-1.77-3.43L794.3-256.2z"/>
	</g>
</g>
<rect x="-16.36" y="-2257.44" class="st2" width="1312.72" height="1050.18"/>
<path class="st0" d="M998.55-1336.99H281.45c-25.85,0-46.81-20.96-46.81-46.81v-717.09c0-25.85,20.96-46.81,46.81-46.81h717.09
	c25.85,0,46.81,20.96,46.81,46.81v717.09C1045.36-1357.95,1024.4-1336.99,998.55-1336.99z"/>
<g>
	<circle class="st2" cx="640" cy="-1803.31" r="289.92"/>
	<g>
		<g>
			<g>
				<path class="st3" d="M770.24-1940.24L457.01-1937c-5.07,0-8.24,4.97-5.7,8.93c0,0,1.43,1.88,1.44,1.88
					c55.28,72.56,113.27,92.85,199.82,91.83c2.15-0.03,16.16,1.24,17.1-0.14c0,0-0.16,0.23-0.16,0.23l-20.77,32.48l-5.11,8
					c-2.54,3.96-8.9,3.96-11.44,0l-6.17-8.91c-1.33-2.08-3.9-3.22-6.52-2.94l-27.87,3.12c-4.68,0.51-7.26,5.18-4.9,8.88l45.46,70.32
					c2.54,3.96,8.9,3.96,11.44,0l87.93-137.47c2.54-3.96-0.62-8.93-5.7-8.93c-22.64,0-45.28,0-67.92,0
					c-22.29,0-44.71,1.59-66.91-1.1c-10.89-1.32-21.68-3.72-31.9-7.78c-8.01-3.19-23.32-8.75-26.23-17.92
					c-3.37-10.64,16.61-8.43,22.26-8.6c11.04-0.32,22.09,0.12,33.13,0.12c18.58,0,37.16,0,55.73,0c37.1,0,74.2,0,111.3,0
					c2.36,0,4.53-1.13,5.72-2.98l14.91-23.32C778.5-1935.27,775.32-1940.24,770.24-1940.24z"/>
			</g>
		</g>
		<g>
			<g>
				<path class="st4" d="M861.37-1922.55c-1.03,2.41-2.45,4.73-3.84,6.91c-68.15,106.75-136.41,213.42-204.79,320.02
					c-3.19,4.97-7.2,10.46-13.09,10.92c-6.86,0.54-11.96-5.97-15.69-11.75c-36.18-56.08-72.37-112.15-108.55-168.23
					c-4.6-7.12-14.18-19.06-8.26-27.25c5.74-7.93,17.33-9.46,25.84-5.4c9.54,4.56,15.73,13.91,21.43,22.82
					c22.9,35.76,45.79,71.52,68.69,107.29c3.22,5.02,7.11,10.51,12.99,11.49c8.22,1.37,14.67-6.61,19.15-13.64
					c51.57-81.02,103.15-162.04,154.72-243.06c5.97-9.38,12.89-19.81,22.95-25.56c8.96-5.12,26.7-6.77,29.69,6.26
					C863.31-1928.62,862.64-1925.52,861.37-1922.55z"/>
			</g>
		</g>
	</g>
</g>
<path class="st5" d="M541.44-1843.69"/>
<g>
	<g>
		<path class="st2" d="M447.83-1413.96c0.42-1.73,2.27-2.69,3.92-2.03c3.46,1.37,7.84,2.44,12.3,2.44c6.37,0,9.75-2.65,9.75-6.69
			c0-3.77-2.93-5.99-10.28-8.58c-10.24-3.63-16.93-9.21-16.93-18.18c0-10.46,8.79-18.42,23.22-18.42c5.5,0,9.8,0.86,13.15,2.05
			c1.45,0.52,2.24,2.07,1.83,3.55l-1.49,5.42c-0.45,1.64-2.2,2.56-3.81,1.99c-2.49-0.89-5.83-1.7-9.89-1.7
			c-6.04,0-8.93,2.8-8.93,5.94c0,3.9,3.4,5.62,11.36,8.63c10.87,4.06,15.9,9.7,15.9,18.38c0,10.25-7.85,19.04-24.74,19.04
			c-5.62,0-11.24-1.23-15-2.72c-1.36-0.54-2.12-2-1.77-3.43L447.83-1413.96z"/>
		<path class="st2" d="M541.49-1425.82c0,16.29-11.54,23.73-23.49,23.73c-12.97,0-23.01-8.57-23.01-22.96
			c0-14.38,9.49-23.61,23.81-23.61C532.43-1448.66,541.49-1439.28,541.49-1425.82z M509.27-1425.36c0,7.61,3.21,13.38,9.12,13.38
			c5.4,0,8.82-5.41,8.82-13.45c0-6.57-2.53-13.33-8.81-13.33C511.79-1438.76,509.27-1431.97,509.27-1425.36z"/>
		<path class="st2" d="M594.3-1425.82c0,16.29-11.54,23.73-23.49,23.73c-12.97,0-23.01-8.57-23.01-22.96
			c0-14.38,9.49-23.61,23.81-23.61C585.24-1448.66,594.3-1439.28,594.3-1425.82z M562.08-1425.36c0,7.61,3.21,13.38,9.12,13.38
			c5.4,0,8.82-5.41,8.82-13.45c0-6.57-2.53-13.33-8.81-13.33C564.6-1438.76,562.08-1431.97,562.08-1425.36z"/>
		<path class="st2" d="M602.87-1432.97c0-4.88-0.07-8.51-0.2-11.64c-0.07-1.67,1.27-3.05,2.93-3.05h6.05c1.55,0,2.84,1.21,2.93,2.76
			l0.34,5.49h0.34c2.29-6.52,7.71-9.25,12.03-9.25c0.01,0,0.03,0,0.04,0c1.62,0,2.92,1.32,2.92,2.94v7.03c0,1.65-1.35,3.01-3,2.95
			c-0.24-0.01-0.48-0.01-0.74-0.01c-5.09,0-8.57,2.7-9.5,7.04c-0.17,0.88-0.26,1.96-0.26,3.08v19.62c0,1.62-1.31,2.94-2.94,2.94h-8
			c-1.62,0-2.94-1.31-2.94-2.94V-1432.97z"/>
		<path class="st2" d="M664.29-1403.09c-1.42,0-2.63-1.01-2.89-2.4l-0.37-2.03h-0.29c-2.91,3.55-7.46,5.43-12.73,5.43
			c-9.08,0-14.41-6.52-14.41-13.64c0-11.61,10.39-17.12,26.16-17.09v-0.57c0-2.37-1.27-5.75-8.16-5.74c-3.24,0-6.61,0.79-9.35,1.89
			c-1.61,0.65-3.43-0.28-3.91-1.95l-0.9-3.11c-0.41-1.43,0.31-2.93,1.67-3.52c3.41-1.46,8.55-2.84,14.97-2.84
			c14.84,0,19.53,8.77,19.53,19.24v15.54c0,2.74,0.09,5.4,0.29,7.61c0.15,1.71-1.21,3.18-2.93,3.18H664.29z M660.16-1421.13
			c0-1.7-1.43-3.07-3.13-2.93c-5.71,0.45-9.8,2.4-9.8,6.92c0,3.59,2.35,5.34,5.5,5.34c3.39,0,6.26-2.26,7.17-5.12
			c0.21-0.72,0.26-1.58,0.26-2.37V-1421.13z"/>
		<path class="st2" d="M675.77-1391.98c-0.19-1.54,0.86-2.94,2.38-3.24c2.31-0.46,4.17-1.26,5.44-2.58
			c2.01-2.07,2.76-5.63,2.76-14.51v-32.41c0-1.62,1.31-2.94,2.94-2.94h8c1.62,0,2.94,1.31,2.94,2.94v35.75
			c0,9.71-2.13,15.61-6.26,19.48c-3.54,3.23-8.83,4.92-14.47,5.33c-1.54,0.11-2.89-1.04-3.08-2.58L675.77-1391.98z M700.58-1460.03
			c0.02,3.84-2.82,6.92-7.44,6.92c-4.41,0-7.23-3.08-7.22-6.92c-0.02-3.96,2.89-6.94,7.35-6.94
			C697.74-1466.97,700.52-1463.99,700.58-1460.03z"/>
		<path class="st2" d="M735.31-1452.81h-10.69c-1.62,0-2.94-1.31-2.94-2.94v-5.78c0-1.62,1.31-2.94,2.94-2.94h41.37
			c1.62,0,2.94,1.31,2.94,2.94v5.78c0,1.62-1.31,2.94-2.94,2.94h-10.92c-1.62,0-2.94,1.31-2.94,2.94v43.85
			c0,1.62-1.31,2.94-2.94,2.94h-8c-1.62,0-2.94-1.31-2.94-2.94v-43.85C738.25-1451.5,736.93-1452.81,735.31-1452.81z"/>
		<path class="st2" d="M794.3-1413.96c0.42-1.73,2.27-2.69,3.92-2.03c3.46,1.37,7.84,2.44,12.3,2.44c6.37,0,9.75-2.65,9.75-6.69
			c0-3.77-2.93-5.99-10.28-8.58c-10.24-3.63-16.93-9.21-16.93-18.18c0-10.46,8.79-18.42,23.22-18.42c5.5,0,9.8,0.86,13.15,2.05
			c1.45,0.52,2.24,2.07,1.83,3.55l-1.49,5.42c-0.45,1.64-2.2,2.56-3.8,1.99c-2.49-0.89-5.83-1.7-9.89-1.7
			c-6.04,0-8.93,2.8-8.93,5.94c0,3.9,3.4,5.62,11.36,8.63c10.87,4.06,15.9,9.7,15.9,18.38c0,10.25-7.85,19.04-24.74,19.04
			c-5.62,0-11.24-1.23-15-2.72c-1.36-0.54-2.12-2-1.77-3.43L794.3-1413.96z"/>
	</g>
</g>
<g>
	<circle class="st2" cx="305.07" cy="499.9" r="138.49"/>
	<g>
		<g>
			<g>
				<path class="st3" d="M367.29,434.49l-149.62,1.55c-2.42,0-3.93,2.37-2.72,4.27c0,0,0.68,0.9,0.69,0.9
					c26.4,34.66,54.1,44.35,95.45,43.86c1.03-0.01,7.72,0.59,8.17-0.07c0,0-0.07,0.11-0.07,0.11l-9.92,15.52l-2.44,3.82
					c-1.21,1.89-4.25,1.89-5.46,0l-2.95-4.26c-0.63-0.99-1.86-1.54-3.11-1.41l-13.31,1.49c-2.24,0.24-3.47,2.47-2.34,4.24
					l21.71,33.59c1.21,1.89,4.25,1.89,5.46,0l42-65.67c1.21-1.89-0.3-4.27-2.72-4.27c-10.81,0-21.63,0-32.44,0
					c-10.65,0-21.36,0.76-31.96-0.53c-5.2-0.63-10.36-1.78-15.24-3.72c-3.82-1.52-11.14-4.18-12.53-8.56
					c-1.61-5.08,7.93-4.03,10.63-4.11c5.27-0.15,10.55,0.06,15.83,0.06c8.87,0,17.75,0,26.62,0c17.72,0,35.44,0,53.17,0
					c1.13,0,2.16-0.54,2.73-1.42l7.12-11.14C371.23,436.86,369.71,434.49,367.29,434.49z"/>
			</g>
		</g>
		<g>
			<g>
				<path class="st4" d="M410.82,442.94c-0.49,1.15-1.17,2.26-1.84,3.3c-32.55,50.99-65.16,101.94-97.82,152.86
					c-1.52,2.37-3.44,4.99-6.25,5.21c-3.28,0.26-5.71-2.85-7.5-5.61c-17.28-26.79-34.57-53.57-51.85-80.36
					c-2.2-3.4-6.77-9.11-3.95-13.02c2.74-3.79,8.28-4.52,12.34-2.58c4.56,2.18,7.51,6.64,10.24,10.9
					c10.94,17.08,21.87,34.16,32.81,51.25c1.54,2.4,3.4,5.02,6.21,5.49c3.93,0.65,7.01-3.16,9.15-6.52
					c24.63-38.7,49.27-77.4,73.9-116.1c2.85-4.48,6.16-9.46,10.96-12.21c4.28-2.45,12.75-3.24,14.18,2.99
					C411.74,440.04,411.42,441.52,410.82,442.94z"/>
			</g>
		</g>
	</g>
</g>
<path class="st5" d="M538.55,402.71"/>
<path class="st6" d="M854.47,469.38c-1.5-5.16-3.05-11.7-4.38-16.8h-0.27c-1.28,5.13-2.6,11.76-4,16.82l-3.38,12.01
	c-0.92,3.27,1.53,6.51,4.93,6.51h5.71c3.42,0,5.87-3.28,4.91-6.56L854.47,469.38z"/>
<path class="st6" d="M768.03,451.79c-1.53,0-2.85,0.03-3.99,0.09c-2.74,0.13-4.89,2.37-4.89,5.12v14.37c0,2.83,2.29,5.12,5.12,5.12
	h2.61c9.79,0,15.64-4.99,15.64-12.57C782.52,455.93,777.05,451.85,768.03,451.79z"/>
<g>
	<path class="st6" d="M684.73,470.54c-13.36,0-21.17,12.61-21.17,29.58c0,17.09,8.06,29.14,21.22,29.14
		c13.34,0,20.96-12.6,20.96-29.57C705.74,483.97,698.3,470.54,684.73,470.54z"/>
	<path class="st6" d="M591.93,470.54c-13.36,0-21.17,12.61-21.17,29.58c0,17.09,8.06,29.14,21.22,29.14
		c13.34,0,20.96-12.6,20.96-29.57C612.93,483.97,605.5,470.54,591.93,470.54z"/>
	<path class="st2" d="M517.97,491.69c-11.32-4.27-16.15-6.72-16.15-12.27c0-4.46,4.1-8.44,12.69-8.44c5.33,0,9.8,0.99,13.23,2.13
		c2.76,0.92,5.72-0.7,6.5-3.51l1.62-5.87c0.73-2.65-0.77-5.38-3.38-6.24c-4.6-1.51-10.4-2.57-17.68-2.57c-20.51,0-33,11.31-33,26.19
		c0,12.74,9.51,20.68,24.07,25.84c10.44,3.68,14.61,6.84,14.61,12.2c0,5.74-4.8,9.5-13.86,9.5c-5.99,0-11.85-1.35-16.63-3.13
		c-2.85-1.06-5.98,0.65-6.7,3.6l-1.52,6.22c-0.62,2.54,0.77,5.13,3.23,6.04c5.31,1.96,12.86,3.52,20.4,3.52
		c24.02,0,35.17-12.5,35.17-27.07C540.57,505.48,533.42,497.46,517.97,491.69z"/>
	<path class="st2" d="M592.37,454.85c-25.69,0-42.47,19.56-42.47,45.64c0,24.88,15.22,44.45,41.1,44.45
		c25.51,0,42.79-17.3,42.79-45.92C633.79,474.89,619.15,454.85,592.37,454.85z M591.97,529.26c-13.16,0-21.22-12.05-21.22-29.14
		c0-16.97,7.81-29.58,21.17-29.58c13.57,0,21.01,13.43,21.01,29.16C612.93,516.66,605.31,529.26,591.97,529.26z"/>
	<path class="st2" d="M685.18,454.85c-25.69,0-42.47,19.56-42.47,45.64c0,24.88,15.22,44.45,41.1,44.45
		c25.51,0,42.79-17.3,42.79-45.92C726.59,474.89,711.96,454.85,685.18,454.85z M684.78,529.26c-13.16,0-21.22-12.05-21.22-29.14
		c0-16.97,7.81-29.58,21.17-29.58c13.57,0,21.01,13.43,21.01,29.16C705.74,516.66,698.12,529.26,684.78,529.26z"/>
	<path class="st2" d="M798.39,518.9c-2.2-8.02-5.61-13.8-11.66-16.25v-0.41c7.5-2.69,15.4-10.39,15.4-21.44
		c0-8.02-2.87-14.16-8.08-18.29c-6.23-4.94-15.29-6.91-28.24-6.91c-8.25,0-15.82,0.5-21.76,1.23c-2.55,0.32-4.46,2.5-4.46,5.08v76.5
		c0,2.83,2.29,5.12,5.12,5.12h9.31c2.83,0,5.12-2.29,5.12-5.12v-24.02c0-2.83,2.29-5.12,5.12-5.12h0.75
		c8.12,0.1,11.78,3.02,14.21,13.92c1.75,7.61,3.34,13.33,4.6,16.94c0.72,2.05,2.66,3.4,4.82,3.4h9.62c3.4,0,5.86-3.24,4.93-6.51
		C801.77,531.97,800.09,525.14,798.39,518.9z M766.88,494.99h-2.61c-2.83,0-5.12-2.29-5.12-5.12V475.5c0-2.74,2.16-4.98,4.89-5.12
		c1.14-0.06,2.46-0.09,3.99-0.09c9.01,0.05,14.49,4.14,14.49,12.12C782.52,490,776.67,494.99,766.88,494.99z"/>
	<path class="st2" d="M864.75,459.87c-0.67-2.14-2.65-3.6-4.89-3.6h-18.26c-2.25,0-4.24,1.47-4.9,3.63l-23.5,77.01
		c-1,3.29,1.46,6.61,4.9,6.61h9.58c2.3,0,4.33-1.54,4.94-3.76l4.09-14.88c0.61-2.22,2.63-3.76,4.94-3.76h17.37
		c2.26,0,4.26,1.48,4.9,3.65l4.52,15.1c0.65,2.17,2.64,3.65,4.9,3.65h10.49c3.45,0,5.91-3.35,4.89-6.64L864.75,459.87z
		 M853.07,506.42h-5.71c-3.39,0-5.85-3.24-4.93-6.51l3.38-12.01c1.4-5.07,2.71-11.69,4-16.82h0.27c1.34,5.1,2.89,11.64,4.38,16.8
		l3.51,11.98C858.95,503.14,856.49,506.42,853.07,506.42z"/>
	<path class="st2" d="M937.42,456.28h-9.49c-2.83,0-5.12,2.29-5.12,5.12v49.83c0,13.57-5.21,17.28-13.49,17.28
		c-1.75,0-3.46-0.14-5.04-0.38c-2.8-0.42-5.4,1.55-5.79,4.36l-0.81,5.84c-0.38,2.73,1.47,5.26,4.18,5.75
		c3.17,0.57,6.68,0.87,9.63,0.87c19.15,0,31.05-8.73,31.05-33.49V461.4C942.54,458.57,940.25,456.28,937.42,456.28z"/>
	<path class="st2" d="M1044.42,456.28h-56.91c-2.83,0-5.12,2.29-5.12,5.12v6.32c0,2.83,2.29,5.12,5.12,5.12h13.31
		c2.83,0,5.12,2.29,5.12,5.12v60.45c0,2.83,2.29,5.12,5.12,5.12h9.49c2.83,0,5.12-2.29,5.12-5.12v-60.45c0-2.83,2.29-5.12,5.12-5.12
		h13.64c2.83,0,5.12-2.29,5.12-5.12v-6.32C1049.54,458.57,1047.25,456.28,1044.42,456.28z"/>
	<path class="st2" d="M1111.04,491.69c-11.32-4.27-16.15-6.72-16.15-12.27c0-4.46,4.1-8.44,12.69-8.44c5.33,0,9.8,0.99,13.23,2.13
		c2.76,0.92,5.72-0.7,6.5-3.51l1.62-5.87c0.73-2.65-0.77-5.38-3.38-6.24c-4.6-1.51-10.4-2.57-17.68-2.57c-20.51,0-33,11.31-33,26.19
		c0,12.74,9.51,20.68,24.07,25.84c10.44,3.68,14.61,6.84,14.61,12.2c0,5.74-4.8,9.5-13.86,9.5c-5.98,0-11.85-1.35-16.63-3.13
		c-2.85-1.06-5.98,0.65-6.7,3.6l-1.52,6.22c-0.62,2.54,0.77,5.13,3.23,6.04c5.31,1.96,12.86,3.52,20.4,3.52
		c24.02,0,35.17-12.5,35.17-27.07C1133.64,505.48,1126.49,497.46,1111.04,491.69z"/>
</g>
<path class="st0" d="M2470.23,905.26h-1012.3c-25.85,0-46.81-20.96-46.81-46.81V141.35c0-25.85,20.96-46.81,46.81-46.81h1012.3
	c25.85,0,46.81,20.96,46.81,46.81v717.09C2517.04,884.3,2496.08,905.26,2470.23,905.26z"/>
<g>
	<circle class="st2" cx="1629.15" cy="499.9" r="138.49"/>
	<g>
		<g>
			<g>
				<path class="st3" d="M1691.37,434.49l-149.62,1.55c-2.42,0-3.93,2.37-2.72,4.27c0,0,0.68,0.9,0.69,0.9
					c26.4,34.66,54.1,44.35,95.45,43.86c1.03-0.01,7.72,0.59,8.17-0.07c0,0-0.07,0.11-0.07,0.11l-9.92,15.52l-2.44,3.82
					c-1.21,1.89-4.25,1.89-5.46,0l-2.95-4.26c-0.63-0.99-1.86-1.54-3.11-1.41l-13.31,1.49c-2.24,0.24-3.47,2.47-2.34,4.24
					l21.71,33.59c1.21,1.89,4.25,1.89,5.46,0l42-65.67c1.21-1.89-0.3-4.27-2.72-4.27c-10.81,0-21.63,0-32.44,0
					c-10.65,0-21.36,0.76-31.96-0.53c-5.2-0.63-10.36-1.78-15.24-3.72c-3.82-1.52-11.14-4.18-12.53-8.56
					c-1.61-5.08,7.93-4.03,10.63-4.11c5.27-0.15,10.55,0.06,15.83,0.06c8.87,0,17.75,0,26.62,0c17.72,0,35.44,0,53.17,0
					c1.13,0,2.16-0.54,2.73-1.42l7.12-11.14C1695.31,436.86,1693.79,434.49,1691.37,434.49z"/>
			</g>
		</g>
		<g>
			<g>
				<path class="st4" d="M1734.9,442.94c-0.49,1.15-1.17,2.26-1.84,3.3c-32.55,50.99-65.16,101.94-97.82,152.86
					c-1.52,2.37-3.44,4.99-6.25,5.21c-3.28,0.26-5.71-2.85-7.5-5.61c-17.28-26.79-34.57-53.57-51.85-80.36
					c-2.2-3.4-6.77-9.11-3.95-13.02c2.74-3.79,8.28-4.52,12.34-2.58c4.56,2.18,7.51,6.64,10.24,10.9
					c10.94,17.08,21.87,34.16,32.81,51.25c1.54,2.4,3.4,5.02,6.21,5.49c3.93,0.65,7.01-3.16,9.15-6.52
					c24.63-38.7,49.27-77.4,73.9-116.1c2.85-4.48,6.16-9.46,10.96-12.21c4.28-2.45,12.75-3.24,14.18,2.99
					C1735.82,440.04,1735.5,441.52,1734.9,442.94z"/>
			</g>
		</g>
	</g>
</g>
<path class="st5" d="M1862.63,402.71"/>
<path class="st6" d="M2178.55,469.38c-1.5-5.16-3.05-11.7-4.38-16.8h-0.27c-1.28,5.13-2.6,11.76-4,16.82l-3.38,12.01
	c-0.92,3.27,1.53,6.51,4.93,6.51h5.71c3.42,0,5.87-3.28,4.91-6.56L2178.55,469.38z"/>
<path class="st6" d="M2092.11,451.79c-1.53,0-2.85,0.03-3.99,0.09c-2.74,0.13-4.89,2.37-4.89,5.12v14.37c0,2.83,2.29,5.12,5.12,5.12
	h2.61c9.79,0,15.64-4.99,15.64-12.57C2106.6,455.93,2101.13,451.85,2092.11,451.79z"/>
<g>
	<path class="st6" d="M2008.81,470.54c-13.36,0-21.17,12.61-21.17,29.58c0,17.09,8.06,29.14,21.22,29.14
		c13.34,0,20.96-12.6,20.96-29.57C2029.82,483.97,2022.38,470.54,2008.81,470.54z"/>
	<path class="st6" d="M1916.01,470.54c-13.36,0-21.17,12.61-21.17,29.58c0,17.09,8.06,29.14,21.22,29.14
		c13.34,0,20.96-12.6,20.96-29.57C1937.01,483.97,1929.58,470.54,1916.01,470.54z"/>
	<path class="st2" d="M1842.05,491.69c-11.32-4.27-16.15-6.72-16.15-12.27c0-4.46,4.1-8.44,12.69-8.44c5.33,0,9.8,0.99,13.23,2.13
		c2.76,0.92,5.72-0.7,6.5-3.51l1.62-5.87c0.73-2.65-0.77-5.38-3.38-6.24c-4.6-1.51-10.4-2.57-17.68-2.57c-20.51,0-33,11.31-33,26.19
		c0,12.74,9.51,20.68,24.07,25.84c10.44,3.68,14.61,6.84,14.61,12.2c0,5.74-4.8,9.5-13.86,9.5c-5.99,0-11.85-1.35-16.63-3.13
		c-2.85-1.06-5.98,0.65-6.7,3.6l-1.52,6.22c-0.62,2.54,0.77,5.13,3.23,6.04c5.31,1.96,12.86,3.52,20.4,3.52
		c24.02,0,35.17-12.5,35.17-27.07C1864.65,505.48,1857.5,497.46,1842.05,491.69z"/>
	<path class="st2" d="M1916.45,454.85c-25.69,0-42.47,19.56-42.47,45.64c0,24.88,15.22,44.45,41.1,44.45
		c25.51,0,42.79-17.3,42.79-45.92C1957.87,474.89,1943.23,454.85,1916.45,454.85z M1916.05,529.26c-13.16,0-21.22-12.05-21.22-29.14
		c0-16.97,7.81-29.58,21.17-29.58c13.57,0,21.01,13.43,21.01,29.16C1937.01,516.66,1929.39,529.26,1916.05,529.26z"/>
	<path class="st2" d="M2009.26,454.85c-25.69,0-42.47,19.56-42.47,45.64c0,24.88,15.22,44.45,41.1,44.45
		c25.51,0,42.79-17.3,42.79-45.92C2050.67,474.89,2036.04,454.85,2009.26,454.85z M2008.86,529.26c-13.16,0-21.22-12.05-21.22-29.14
		c0-16.97,7.81-29.58,21.17-29.58c13.57,0,21.01,13.43,21.01,29.16C2029.82,516.66,2022.2,529.26,2008.86,529.26z"/>
	<path class="st2" d="M2122.47,518.9c-2.2-8.02-5.61-13.8-11.66-16.25v-0.41c7.5-2.69,15.4-10.39,15.4-21.44
		c0-8.02-2.87-14.16-8.07-18.29c-6.23-4.94-15.29-6.91-28.24-6.91c-8.25,0-15.82,0.5-21.76,1.23c-2.55,0.32-4.46,2.5-4.46,5.08v76.5
		c0,2.83,2.29,5.12,5.12,5.12h9.31c2.83,0,5.12-2.29,5.12-5.12v-24.02c0-2.83,2.29-5.12,5.12-5.12h0.75
		c8.12,0.1,11.78,3.02,14.21,13.92c1.75,7.61,3.34,13.33,4.6,16.94c0.72,2.05,2.66,3.4,4.82,3.4h9.62c3.4,0,5.86-3.24,4.93-6.51
		C2125.85,531.97,2124.17,525.14,2122.47,518.9z M2090.96,494.99h-2.61c-2.83,0-5.12-2.29-5.12-5.12V475.5
		c0-2.74,2.16-4.98,4.89-5.12c1.14-0.06,2.46-0.09,3.99-0.09c9.01,0.05,14.49,4.14,14.49,12.12
		C2106.6,490,2100.75,494.99,2090.96,494.99z"/>
	<path class="st2" d="M2188.83,459.87c-0.67-2.14-2.65-3.6-4.89-3.6h-18.26c-2.25,0-4.24,1.47-4.9,3.63l-23.5,77.01
		c-1,3.29,1.46,6.61,4.9,6.61h9.58c2.3,0,4.33-1.54,4.94-3.76l4.09-14.88c0.61-2.22,2.63-3.76,4.94-3.76h17.37
		c2.26,0,4.26,1.48,4.9,3.65l4.52,15.1c0.65,2.17,2.64,3.65,4.9,3.65h10.49c3.45,0,5.91-3.35,4.89-6.64L2188.83,459.87z
		 M2177.15,506.42h-5.71c-3.39,0-5.85-3.24-4.93-6.51l3.38-12.01c1.4-5.07,2.71-11.69,4-16.82h0.27c1.34,5.1,2.89,11.64,4.38,16.8
		l3.51,11.98C2183.03,503.14,2180.57,506.42,2177.15,506.42z"/>
	<path class="st2" d="M2261.5,456.28h-9.49c-2.83,0-5.12,2.29-5.12,5.12v49.83c0,13.57-5.21,17.28-13.49,17.28
		c-1.75,0-3.46-0.14-5.04-0.38c-2.8-0.42-5.4,1.55-5.79,4.36l-0.81,5.84c-0.38,2.73,1.47,5.26,4.18,5.75
		c3.17,0.57,6.68,0.87,9.63,0.87c19.15,0,31.05-8.73,31.05-33.49V461.4C2266.62,458.57,2264.33,456.28,2261.5,456.28z"/>
	<path class="st2" d="M2368.5,456.28h-56.91c-2.83,0-5.12,2.29-5.12,5.12v6.32c0,2.83,2.29,5.12,5.12,5.12h13.31
		c2.83,0,5.12,2.29,5.12,5.12v60.45c0,2.83,2.29,5.12,5.12,5.12h9.49c2.83,0,5.12-2.29,5.12-5.12v-60.45c0-2.83,2.29-5.12,5.12-5.12
		h13.64c2.83,0,5.12-2.29,5.12-5.12v-6.32C2373.62,458.57,2371.33,456.28,2368.5,456.28z"/>
	<path class="st2" d="M2435.12,491.69c-11.32-4.27-16.15-6.72-16.15-12.27c0-4.46,4.1-8.44,12.69-8.44c5.33,0,9.8,0.99,13.23,2.13
		c2.76,0.92,5.72-0.7,6.5-3.51l1.62-5.87c0.73-2.65-0.77-5.38-3.38-6.24c-4.6-1.51-10.4-2.57-17.68-2.57c-20.51,0-33,11.31-33,26.19
		c0,12.74,9.51,20.68,24.07,25.84c10.44,3.68,14.61,6.84,14.61,12.2c0,5.74-4.8,9.5-13.86,9.5c-5.98,0-11.85-1.35-16.63-3.13
		c-2.85-1.06-5.98,0.65-6.7,3.6l-1.52,6.22c-0.62,2.54,0.77,5.13,3.23,6.04c5.31,1.96,12.86,3.52,20.4,3.52
		c24.02,0,35.17-12.5,35.17-27.07C2457.72,505.48,2450.57,497.46,2435.12,491.69z"/>
</g>
<path class="st0" d="M2325.46-179.23h-717.09c-25.85,0-46.81-20.96-46.81-46.81v-717.09c0-25.85,20.96-46.81,46.81-46.81h717.09
	c25.85,0,46.81,20.96,46.81,46.81v717.09C2372.27-200.19,2351.31-179.23,2325.46-179.23z"/>
<g>
	<circle class="st2" cx="1966.91" cy="-645.55" r="289.92"/>
	<g>
		<g>
			<g>
				<path class="st3" d="M2097.16-782.48l-313.24,3.24c-5.07,0-8.24,4.97-5.7,8.93c0,0,1.43,1.88,1.44,1.88
					c55.28,72.56,113.27,92.85,199.82,91.83c2.15-0.03,16.16,1.24,17.1-0.14c0,0-0.16,0.23-0.16,0.23l-20.77,32.48l-5.11,8
					c-2.54,3.96-8.9,3.96-11.44,0l-6.17-8.91c-1.33-2.08-3.9-3.22-6.52-2.94l-27.87,3.12c-4.68,0.51-7.26,5.18-4.9,8.88l45.46,70.32
					c2.54,3.96,8.9,3.96,11.44,0l87.93-137.47c2.54-3.96-0.62-8.93-5.7-8.93c-22.64,0-45.28,0-67.92,0
					c-22.29,0-44.71,1.59-66.91-1.1c-10.89-1.32-21.68-3.72-31.9-7.78c-8.01-3.19-23.32-8.75-26.23-17.92
					c-3.37-10.64,16.61-8.43,22.26-8.6c11.04-0.32,22.09,0.12,33.13,0.12c18.58,0,37.16,0,55.73,0c37.1,0,74.2,0,111.3,0
					c2.36,0,4.53-1.13,5.72-2.98l14.91-23.32C2105.41-777.51,2102.23-782.48,2097.16-782.48z"/>
			</g>
		</g>
		<g>
			<g>
				<path class="st4" d="M2188.29-764.79c-1.03,2.41-2.45,4.73-3.84,6.91c-68.15,106.75-136.41,213.42-204.79,320.02
					c-3.19,4.97-7.2,10.46-13.09,10.92c-6.86,0.54-11.96-5.97-15.69-11.75c-36.18-56.08-72.37-112.15-108.55-168.23
					c-4.6-7.12-14.18-19.06-8.26-27.25c5.74-7.93,17.33-9.46,25.84-5.4c9.54,4.56,15.73,13.91,21.43,22.82
					c22.9,35.76,45.79,71.52,68.69,107.29c3.22,5.02,7.11,10.51,12.99,11.49c8.22,1.37,14.67-6.61,19.15-13.64
					c51.57-81.02,103.15-162.04,154.72-243.06c5.97-9.38,12.89-19.81,22.95-25.56c8.96-5.12,26.7-6.78,29.69,6.26
					C2190.23-770.86,2189.55-767.76,2188.29-764.79z"/>
			</g>
		</g>
	</g>
</g>
<path class="st5" d="M1862.63-685.93"/>
<path class="st2" d="M1739.68-255.46c0.51-2.08,2.71-3.28,4.71-2.53c3.36,1.26,7.49,2.2,11.7,2.2c6.37,0,9.75-2.65,9.75-6.69
	c0-3.77-2.93-5.99-10.28-8.58c-10.24-3.63-16.93-9.21-16.93-18.18c0-10.46,8.79-18.42,23.22-18.42c5.12,0,9.2,0.74,12.44,1.81
	c1.84,0.6,2.89,2.53,2.38,4.39l-1.14,4.13c-0.54,1.98-2.63,3.12-4.57,2.47c-2.42-0.8-5.56-1.5-9.31-1.5c-6.04,0-8.93,2.8-8.93,5.94
	c0,3.9,3.4,5.62,11.36,8.63c10.87,4.06,15.9,9.7,15.9,18.38c0,10.25-7.85,19.04-24.74,19.04c-5.31,0-10.62-1.1-14.35-2.48
	c-1.73-0.64-2.71-2.46-2.27-4.25L1739.68-255.46z"/>
<path class="st2" d="M1845.56-276.63c0,20.14-12.15,32.31-30.1,32.31c-18.2,0-28.91-13.77-28.91-31.27
	c0-18.35,11.8-32.11,29.88-32.11C1835.27-307.7,1845.56-293.61,1845.56-276.63z M1801.22-275.86c0,12.02,5.67,20.5,14.93,20.5
	c9.38,0,14.75-8.86,14.75-20.8c0-11.06-5.23-20.51-14.78-20.51C1806.71-296.67,1801.22-287.8,1801.22-275.86z"/>
<path class="st2" d="M1910.85-276.63c0,20.14-12.15,32.31-30.1,32.31c-18.2,0-28.91-13.77-28.91-31.27
	c0-18.35,11.8-32.11,29.88-32.11C1900.55-307.7,1910.85-293.61,1910.85-276.63z M1866.51-275.86c0,12.02,5.67,20.5,14.93,20.5
	c9.38,0,14.75-8.86,14.75-20.8c0-11.06-5.23-20.51-14.78-20.51C1872-296.67,1866.51-287.8,1866.51-275.86z"/>
<path class="st2" d="M1920-302.74c0-1.81,1.34-3.35,3.14-3.57c4.18-0.52,9.5-0.87,15.31-0.87c9.1,0,15.48,1.39,19.86,4.86
	c3.66,2.91,5.68,7.22,5.68,12.87c0,7.77-5.56,13.19-10.84,15.08v0.29c4.26,1.72,6.65,5.79,8.2,11.43c1.2,4.39,2.38,9.2,3.39,12.74
	c0.66,2.3-1.08,4.58-3.47,4.58h-6.77c-1.53,0-2.89-0.95-3.39-2.39c-0.89-2.54-2.01-6.56-3.24-11.91c-1.71-7.67-4.29-9.72-10-9.79
	h-0.52c-1.99,0-3.6,1.61-3.6,3.6v16.9c0,1.99-1.61,3.6-3.6,3.6h-6.55c-1.99,0-3.6-1.61-3.6-3.6V-302.74z M1933.76-283.07
	c0,1.99,1.61,3.6,3.6,3.6h1.83c6.89,0,11-3.51,11-8.84c0-5.62-3.85-8.49-10.19-8.53c-1.07,0-2,0.02-2.8,0.06
	c-1.93,0.09-3.44,1.67-3.44,3.6V-283.07z"/>
<path class="st2" d="M1988.32-258.44l-2.88,10.46c-0.43,1.56-1.85,2.65-3.47,2.65h-6.74c-2.42,0-4.15-2.34-3.44-4.65l16.53-54.17
	c0.46-1.52,1.86-2.55,3.44-2.55h12.84c1.58,0,2.97,1.03,3.44,2.53l16.86,54.17c0.72,2.32-1.01,4.67-3.44,4.67h-7.38
	c-1.59,0-2.99-1.04-3.45-2.57l-3.18-10.62c-0.46-1.52-1.86-2.57-3.45-2.57h-12.22C1990.17-261.08,1988.75-260,1988.32-258.44z
	 M1999.83-271.42c2.4,0,4.13-2.31,3.46-4.61l-2.47-8.43c-1.05-3.63-2.14-8.23-3.08-11.82h-0.19c-0.9,3.61-1.83,8.27-2.81,11.83
	l-2.38,8.45c-0.65,2.3,1.08,4.58,3.47,4.58H1999.83z"/>
<path class="st2" d="M2052.49-306.7h6.67c1.99,0,3.6,1.61,3.6,3.6v35.22c0,17.42-8.37,23.56-21.84,23.56
	c-2.08,0-4.55-0.21-6.77-0.61c-1.91-0.35-3.21-2.13-2.94-4.05l0.57-4.11c0.28-1.97,2.1-3.36,4.07-3.07
	c1.12,0.17,2.31,0.27,3.55,0.27c5.82,0,9.49-2.61,9.49-12.16v-35.05C2048.89-305.09,2050.5-306.7,2052.49-306.7z"/>
<path class="st2" d="M2097.43-295.05h-9.36c-1.99,0-3.6-1.61-3.6-3.6v-4.45c0-1.99,1.61-3.6,3.6-3.6h40.03c1.99,0,3.6,1.61,3.6,3.6
	v4.45c0,1.99-1.61,3.6-3.6,3.6h-9.59c-1.99,0-3.6,1.61-3.6,3.6v42.52c0,1.99-1.61,3.6-3.6,3.6h-6.67c-1.99,0-3.6-1.61-3.6-3.6
	v-42.52C2101.03-293.44,2099.42-295.05,2097.43-295.05z"/>
<path class="st2" d="M2156.9-255.46c0.51-2.08,2.71-3.28,4.71-2.53c3.36,1.26,7.49,2.2,11.7,2.2c6.37,0,9.75-2.65,9.75-6.69
	c0-3.77-2.93-5.99-10.28-8.58c-10.24-3.63-16.93-9.21-16.93-18.18c0-10.46,8.79-18.42,23.22-18.42c5.12,0,9.2,0.74,12.44,1.81
	c1.84,0.6,2.89,2.53,2.38,4.39l-1.14,4.13c-0.54,1.98-2.63,3.12-4.57,2.47c-2.42-0.8-5.56-1.5-9.31-1.5c-6.04,0-8.93,2.8-8.93,5.94
	c0,3.9,3.4,5.62,11.36,8.63c10.87,4.06,15.9,9.7,15.9,18.38c0,10.25-7.85,19.04-24.74,19.04c-5.31,0-10.61-1.1-14.35-2.48
	c-1.73-0.64-2.71-2.46-2.27-4.25L2156.9-255.46z"/>
<rect x="1312.67" y="-2255.74" class="st2" width="1308.49" height="1046.79"/>
<path class="st0" d="M2325.46-1336.99h-717.09c-25.85,0-46.81-20.96-46.81-46.81v-717.09c0-25.85,20.96-46.81,46.81-46.81h717.09
	c25.85,0,46.81,20.96,46.81,46.81v717.09C2372.27-1357.95,2351.31-1336.99,2325.46-1336.99z"/>
<g>
	<circle class="st2" cx="1966.91" cy="-1803.31" r="289.92"/>
	<g>
		<g>
			<g>
				<path class="st3" d="M2097.16-1940.24l-313.24,3.24c-5.07,0-8.24,4.97-5.7,8.93c0,0,1.43,1.88,1.44,1.88
					c55.28,72.56,113.27,92.85,199.82,91.83c2.15-0.03,16.16,1.24,17.1-0.14c0,0-0.16,0.23-0.16,0.23l-20.77,32.48l-5.11,8
					c-2.54,3.96-8.9,3.96-11.44,0l-6.17-8.91c-1.33-2.08-3.9-3.22-6.52-2.94l-27.87,3.12c-4.68,0.51-7.26,5.18-4.9,8.88l45.46,70.32
					c2.54,3.96,8.9,3.96,11.44,0l87.93-137.47c2.54-3.96-0.62-8.93-5.7-8.93c-22.64,0-45.28,0-67.92,0
					c-22.29,0-44.71,1.59-66.91-1.1c-10.89-1.32-21.68-3.72-31.9-7.78c-8.01-3.19-23.32-8.75-26.23-17.92
					c-3.37-10.64,16.61-8.43,22.26-8.6c11.04-0.32,22.09,0.12,33.13,0.12c18.58,0,37.16,0,55.73,0c37.1,0,74.2,0,111.3,0
					c2.36,0,4.53-1.13,5.72-2.98l14.91-23.32C2105.41-1935.27,2102.23-1940.24,2097.16-1940.24z"/>
			</g>
		</g>
		<g>
			<g>
				<path class="st4" d="M2188.29-1922.55c-1.03,2.41-2.45,4.73-3.84,6.91c-68.15,106.75-136.41,213.42-204.79,320.02
					c-3.19,4.97-7.2,10.46-13.09,10.92c-6.86,0.54-11.96-5.97-15.69-11.75c-36.18-56.08-72.37-112.15-108.55-168.23
					c-4.6-7.12-14.18-19.06-8.26-27.25c5.74-7.93,17.33-9.46,25.84-5.4c9.54,4.56,15.73,13.91,21.43,22.82
					c22.9,35.76,45.79,71.52,68.69,107.29c3.22,5.02,7.11,10.51,12.99,11.49c8.22,1.37,14.67-6.61,19.15-13.64
					c51.57-81.02,103.15-162.04,154.72-243.06c5.97-9.38,12.89-19.81,22.95-25.56c8.96-5.12,26.7-6.77,29.69,6.26
					C2190.23-1928.62,2189.55-1925.52,2188.29-1922.55z"/>
			</g>
		</g>
	</g>
</g>
<path class="st5" d="M1862.63-1843.69"/>
<path class="st2" d="M1739.68-1413.22c0.51-2.08,2.71-3.28,4.71-2.53c3.36,1.26,7.49,2.2,11.7,2.2c6.37,0,9.75-2.65,9.75-6.69
	c0-3.77-2.93-5.99-10.28-8.58c-10.24-3.63-16.93-9.21-16.93-18.18c0-10.46,8.79-18.42,23.22-18.42c5.12,0,9.2,0.74,12.44,1.81
	c1.84,0.6,2.89,2.53,2.38,4.39l-1.14,4.13c-0.54,1.98-2.63,3.12-4.57,2.47c-2.42-0.8-5.56-1.5-9.31-1.5c-6.04,0-8.93,2.8-8.93,5.94
	c0,3.9,3.4,5.62,11.36,8.63c10.87,4.06,15.9,9.7,15.9,18.38c0,10.25-7.85,19.04-24.74,19.04c-5.31,0-10.62-1.1-14.35-2.48
	c-1.73-0.64-2.71-2.46-2.27-4.25L1739.68-1413.22z"/>
<path class="st2" d="M1845.56-1434.39c0,20.14-12.15,32.31-30.1,32.31c-18.2,0-28.91-13.77-28.91-31.27
	c0-18.35,11.8-32.11,29.88-32.11C1835.27-1465.46,1845.56-1451.37,1845.56-1434.39z M1801.22-1433.62c0,12.02,5.67,20.5,14.93,20.5
	c9.38,0,14.75-8.86,14.75-20.8c0-11.06-5.23-20.51-14.78-20.51C1806.71-1454.43,1801.22-1445.56,1801.22-1433.62z"/>
<path class="st2" d="M1910.85-1434.39c0,20.14-12.15,32.31-30.1,32.31c-18.2,0-28.91-13.77-28.91-31.27
	c0-18.35,11.8-32.11,29.88-32.11C1900.55-1465.46,1910.85-1451.37,1910.85-1434.39z M1866.51-1433.62c0,12.02,5.67,20.5,14.93,20.5
	c9.38,0,14.75-8.86,14.75-20.8c0-11.06-5.23-20.51-14.78-20.51C1872-1454.43,1866.51-1445.56,1866.51-1433.62z"/>
<path class="st2" d="M1920-1460.5c0-1.81,1.34-3.35,3.14-3.57c4.18-0.52,9.5-0.87,15.31-0.87c9.1,0,15.48,1.39,19.86,4.86
	c3.66,2.91,5.68,7.22,5.68,12.87c0,7.77-5.56,13.19-10.84,15.08v0.29c4.26,1.72,6.65,5.79,8.2,11.43c1.2,4.39,2.38,9.2,3.39,12.74
	c0.66,2.3-1.08,4.58-3.47,4.58h-6.77c-1.53,0-2.89-0.95-3.39-2.39c-0.89-2.54-2.01-6.56-3.24-11.91c-1.71-7.67-4.29-9.72-10-9.79
	h-0.52c-1.99,0-3.6,1.61-3.6,3.6v16.9c0,1.99-1.61,3.6-3.6,3.6h-6.55c-1.99,0-3.6-1.61-3.6-3.6V-1460.5z M1933.76-1440.83
	c0,1.99,1.61,3.6,3.6,3.6h1.83c6.89,0,11-3.51,11-8.84c0-5.62-3.85-8.49-10.19-8.53c-1.07,0-2,0.02-2.8,0.06
	c-1.93,0.09-3.44,1.67-3.44,3.6V-1440.83z"/>
<path class="st2" d="M1988.32-1416.2l-2.88,10.46c-0.43,1.56-1.85,2.65-3.47,2.65h-6.74c-2.42,0-4.15-2.34-3.44-4.65l16.53-54.17
	c0.46-1.52,1.86-2.55,3.44-2.55h12.84c1.58,0,2.97,1.03,3.44,2.53l16.86,54.17c0.72,2.32-1.01,4.67-3.44,4.67h-7.38
	c-1.59,0-2.99-1.04-3.45-2.57l-3.18-10.62c-0.46-1.52-1.86-2.57-3.45-2.57h-12.22C1990.17-1418.84,1988.75-1417.76,1988.32-1416.2z
	 M1999.83-1429.18c2.4,0,4.13-2.31,3.46-4.61l-2.47-8.43c-1.05-3.63-2.14-8.23-3.08-11.82h-0.19c-0.9,3.61-1.83,8.27-2.81,11.83
	l-2.38,8.45c-0.65,2.3,1.08,4.58,3.47,4.58H1999.83z"/>
<path class="st2" d="M2052.49-1464.46h6.67c1.99,0,3.6,1.61,3.6,3.6v35.22c0,17.42-8.37,23.56-21.84,23.56
	c-2.08,0-4.55-0.21-6.77-0.61c-1.91-0.35-3.21-2.13-2.94-4.05l0.57-4.11c0.28-1.97,2.1-3.36,4.07-3.07
	c1.12,0.17,2.31,0.27,3.55,0.27c5.82,0,9.49-2.61,9.49-12.16v-35.05C2048.89-1462.85,2050.5-1464.46,2052.49-1464.46z"/>
<path class="st2" d="M2097.43-1452.81h-9.36c-1.99,0-3.6-1.61-3.6-3.6v-4.45c0-1.99,1.61-3.6,3.6-3.6h40.03c1.99,0,3.6,1.61,3.6,3.6
	v4.45c0,1.99-1.61,3.6-3.6,3.6h-9.59c-1.99,0-3.6,1.61-3.6,3.6v42.52c0,1.99-1.61,3.6-3.6,3.6h-6.67c-1.99,0-3.6-1.61-3.6-3.6
	v-42.52C2101.03-1451.2,2099.42-1452.81,2097.43-1452.81z"/>
<path class="st2" d="M2156.9-1413.22c0.51-2.08,2.71-3.28,4.71-2.53c3.36,1.26,7.49,2.2,11.7,2.2c6.37,0,9.75-2.65,9.75-6.69
	c0-3.77-2.93-5.99-10.28-8.58c-10.24-3.63-16.93-9.21-16.93-18.18c0-10.46,8.79-18.42,23.22-18.42c5.12,0,9.2,0.74,12.44,1.81
	c1.84,0.6,2.89,2.53,2.38,4.39l-1.14,4.13c-0.54,1.98-2.63,3.12-4.57,2.47c-2.42-0.8-5.56-1.5-9.31-1.5c-6.04,0-8.93,2.8-8.93,5.94
	c0,3.9,3.4,5.62,11.36,8.63c10.87,4.06,15.9,9.7,15.9,18.38c0,10.25-7.85,19.04-24.74,19.04c-5.31,0-10.61-1.1-14.35-2.48
	c-1.73-0.64-2.71-2.46-2.27-4.25L2156.9-1413.22z"/>
</svg>
